<svg width="16" height="16" viewBox="0 0 16 16" fill="none" xmlns="http://www.w3.org/2000/svg" class="svg svg-article-gallery-icon"><path fill-rule="evenodd" clip-rule="evenodd" d="M2 13V7h8v6H2zM0 6a1 1 0 011-1h10a1 1 0 011 1v8a1 1 0 01-1 1H1a1 1 0 01-1-1V6zm4 3.5a1 1 0 100-2 1 1 0 000 2z" fill="#fff"/><rect x="2" y="1" width="14" height="2" rx="1" fill="#fff"/><rect x="14" y="1" width="2" height="12" rx="1" fill="#fff"/><path d="M1 12l2.129-.851a1 1 0 01.742 0l1.588.635a1 1 0 00.996-.148l1.42-1.136a1 1 0 011.25 0L11 12" stroke="#fff" stroke-width="2" stroke-linecap="round"/></svg>