<svg xmlns="http://www.w3.org/2000/svg" viewBox="0 0 100 100" class="svg svg-avatar-holder"><path d="M55.9 47.6c1.6-1.5 2.6-3.7 2.6-6.1 0-4.7-3.8-8.5-8.5-8.5s-8.5 3.8-8.5 8.5c0 2.4 1 4.6 2.6 6.1C37.6 50 33 56.3 33 63.6v1.7c0 .9.8 1.7 1.7 1.7.9 0 1.7-.8 1.7-1.7v-1.7C36.4 56.1 42.5 50 50 50s13.6 6.1 13.6 13.6v1.7c0 .9.8 1.7 1.7 1.7.9 0 1.7-.8 1.7-1.7v-1.7c0-7.3-4.6-13.6-11.1-16zm-5.9-1c2.8 0 5.1-2.3 5.1-5.1s-2.3-5.1-5.1-5.1-5.1 2.3-5.1 5.1 2.3 5.1 5.1 5.1z" fill-rule="evenodd" clip-rule="evenodd" fill="#9e9e9e"/></svg>