<svg width="20" height="20" viewBox="0 0 20 20" fill="none" xmlns="http://www.w3.org/2000/svg" class="svg svg-font-size-icon-light-grey"><g clip-path="url(#clip0_4110_202844)"><path fill-rule="evenodd" clip-rule="evenodd" d="M7 0a1 1 0 01.949.684l6 18a1 1 0 01-1.897.632L9.946 13H4.054L1.95 19.316a1 1 0 11-1.897-.632l6-18A1 1 0 017 0zm0 4.162L9.28 11H4.72l2.28-6.838zM16.612 13h-2.559l-1.387-4.161 1.385-4.155a1 1 0 011.897 0l4 12a1 1 0 11-1.897.632L16.612 13zm-.666-2L15 8.162 14.054 11h1.892z" fill="#9E9E9E"/></g><defs><clipPath id="clip0_4110_202844"><rect width="20" height="20" fill="#fff"/></clipPath></defs></svg>