<svg width="20" height="21" viewBox="0 0 20 21" fill="none" xmlns="http://www.w3.org/2000/svg" class="svg svg-font-size-icon"><g clip-path="url(#clip0_3669_38963)"><path clip-rule="evenodd" d="M7 .5a1 1 0 01.949.684l6 18a1 1 0 01-1.897.632L9.946 13.5H4.054L1.95 19.816a1 1 0 11-1.897-.632l6-18A1 1 0 017 .5zm0 4.162L9.28 11.5H4.72l2.28-6.838zm9.612 8.838h-2.559l-1.387-4.161 1.385-4.155a1 1 0 011.897 0l4 12a1 1 0 11-1.897.632L16.612 13.5zm-.666-2L15 8.662l-.946 2.838h1.892z"/></g><defs><clipPath id="clip0_3669_38963"><rect width="20" height="20" fill="#fff" transform="translate(0 .5)"/></clipPath></defs></svg>