<svg width="25" height="25" viewBox="0 0 25 25" fill="none" xmlns="http://www.w3.org/2000/svg" class="svg svg-gallery-icon"><path d="M17.18 17.753c0 .364-.131.65-.367.883-.262.26-.55.364-.892.364H6.26c-.367 0-.656-.104-.892-.364-.262-.234-.367-.52-.367-.883v-7.057c0-.338.105-.623.367-.883.236-.234.525-.364.892-.364h9.662c.341 0 .63.13.892.364.236.26.367.545.367.883v7.057zm-7.984-5.81c0-.338-.131-.624-.367-.883-.262-.234-.55-.364-.892-.364-.367 0-.655.13-.891.364-.263.26-.368.545-.368.883 0 .363.105.649.368.883.236.26.524.363.891.363.341 0 .63-.104.892-.363.236-.234.367-.52.367-.883zm-2.518 3.74v1.655h8.824V14.02l-2.104-2.285a.3.3 0 00-.21-.078c-.105 0-.157.026-.21.078l-3.362 3.532-1.05-1.039a.3.3 0 00-.21-.078c-.104 0-.156.026-.209.078l-1.469 1.455z" fill="#fff"/><path d="M7.38 8.67h8.594c.59 0 1.098.183 1.527.6.429.418.616.914.616 1.488v5.428h.429c.375 0 .67-.13.91-.365.269-.261.376-.548.376-.888v-6.68c0-.366-.107-.653-.375-.888-.241-.26-.536-.365-.911-.365h-9.88a1.23 1.23 0 00-.911.365 1.184 1.184 0 00-.375.888v.417z" fill="#fff"/></svg>