<svg width="58" height="58" viewBox="0 0 58 58" fill="none" xmlns="http://www.w3.org/2000/svg" class="svg svg-giftbox"><g clip-path="url(#clip0_391_6705)"><path d="M42.003 23.238a1 1 0 011.553.897l-.241 3.699a1 1 0 00.378.85l2.91 2.296a1 1 0 01-.373 1.754l-3.592.914a1 1 0 00-.692.622l-1.284 3.478a1 1 0 01-1.783.187l-1.98-3.134a1 1 0 00-.805-.465l-3.704-.147a1 1 0 01-.73-1.639l2.37-2.85a1 1 0 00.193-.91l-1.005-3.569a1 1 0 011.333-1.2l3.443 1.373a1 1 0 00.926-.097l3.083-2.059z" fill="#FFDDE5"/><rect x="7.25" y="31.9" width="43.5" height="26.1" rx="1" fill="#710728"/><rect width="39.15" height="26.1" rx="1" transform="matrix(-1 0 0 1 50.75 31.9)" fill="#A50034"/><rect x="23.199" y="31.9" width="11.6" height="26.1" fill="#FFF3A3"/><rect x="2.014" y="16.359" width="46.4" height="10.15" rx="1" transform="rotate(-10 2.014 16.36)" fill="#710728"/><rect width="44.95" height="10.15" rx="1" transform="scale(-1 1) rotate(10 -69.853 -285.078)" fill="#A50034"/><rect x="20.578" y="13.086" width="11.6" height="10.15" transform="rotate(-10 20.578 13.086)" fill="#FFF3A3"/><path d="M26.29 12.08l-14.28 2.518c-.622-3.53.318-7.13 2.512-10.03 1.268-1.678 3.706-1.44 5.113.122l6.655 7.39z" fill="#FFF3A3"/><path fill-rule="evenodd" clip-rule="evenodd" d="M24.002 9.538l-5.256.927c-1.632.288-3.226-.815-3.115-2.468a12.871 12.871 0 011.19-4.587c1.008-.015 2.06.442 2.814 1.28l4.367 4.848z" fill="#FFD419"/><path d="M26.29 12.078l3.726-9.22C30.804.908 33.014-.15 34.779.993c3.054 1.977 5.168 5.037 5.79 8.567l-14.28 2.518z" fill="#FFF3A3"/><path fill-rule="evenodd" clip-rule="evenodd" d="M34.832 1.028c2.188 1.43 3.888 3.418 4.896 5.737l-5.355.944c-1.554.274-2.799-1.276-2.195-2.734l.815-1.97c.37-.898 1.053-1.608 1.84-1.977z" fill="#FFD419"/><path d="M25.66 8.51a3.625 3.625 0 00-2.94 4.199l7.14-1.26a3.625 3.625 0 00-4.2-2.94z" fill="#FFF3A3"/><path fill-rule="evenodd" clip-rule="evenodd" d="M26.761 8.483a3.627 3.627 0 00-1.899 3.847l4.998-.881a3.627 3.627 0 00-3.099-2.966z" fill="#FFD419"/><path d="M51.323 20.454a1 1 0 011.754 0l.777 1.42c.092.167.23.305.397.397l1.42.776a1 1 0 010 1.755l-1.42.776a1 1 0 00-.397.398l-.777 1.42a1 1 0 01-1.754 0l-.777-1.42a1 1 0 00-.397-.398l-1.42-.776a1 1 0 010-1.755l1.42-.776c.167-.092.306-.23.397-.398l.777-1.42z" fill="#FF96A7"/><path d="M21.597 26.98a1 1 0 011.755 0l1.289 2.356a1 1 0 00.397.398l2.357 1.289a1 1 0 010 1.754l-2.357 1.29a1 1 0 00-.397.397l-1.29 2.357a1 1 0 01-1.754 0l-1.29-2.357a1 1 0 00-.397-.398l-2.357-1.289a1 1 0 010-1.754l2.357-1.29a1 1 0 00.398-.397l1.289-2.357z" fill="#FF8BC6"/></g><defs><clipPath id="clip0_391_6705"><rect width="58" height="58" fill="#fff"/></clipPath></defs></svg>