<svg width="31" height="30" viewBox="0 0 31 30" fill="none" xmlns="http://www.w3.org/2000/svg" class="svg svg-gift-disabled"><circle cx="15.25" cy="15" r="15" fill="#F4F5F7"/><g clip-path="url(#clip0_363_13967)"><rect x="6.25" y="11" width="18" height="4" stroke="#CCC" stroke-width="2" stroke-linejoin="round"/><rect x="8.25" y="15" width="14" height="9" stroke="#CCC" stroke-width="2" stroke-linejoin="round"/><rect x="14.25" y="11" width="2" height="10" rx="1" fill="#CCC"/><path d="M18.991 10.56c.634-.23 1.207-.582 1.613-1.01.36-.38.816-1.087.522-1.895-.293-.807-1.097-1.055-1.617-1.115-.587-.068-1.253.032-1.886.262s-1.207.582-1.613 1.011c-.36.38-.816 1.087-.522 1.894.294.808 1.098 1.056 1.618 1.116.586.067 1.252-.032 1.885-.262z" stroke="#CCC" stroke-width="2"/><path d="M11.79 10.502c-.633-.23-1.207-.582-1.613-1.01-.36-.381-.816-1.088-.522-1.895.294-.807 1.097-1.056 1.618-1.116.586-.067 1.252.032 1.885.262s1.207.583 1.613 1.012c.36.38.816 1.087.522 1.894-.294.807-1.098 1.056-1.618 1.115-.586.068-1.252-.031-1.885-.262z" stroke="#CCC" stroke-width="2"/></g><defs><clipPath id="clip0_363_13967"><rect width="20" height="20" fill="#fff" transform="translate(5.25 5)"/></clipPath></defs></svg>