<svg xmlns="http://www.w3.org/2000/svg" width="22" height="22" viewBox="0 0 22 22" class="svg svg-icon-search"><g fill="#FFF" fill-rule="evenodd"><path d="M8.643 15.64a7.004 7.004 0 01-6.997-6.997 7.004 7.004 0 016.997-6.997 7.004 7.004 0 016.996 6.997 7.004 7.004 0 01-6.996 6.996M8.643 0C3.877 0 0 3.877 0 8.643c0 4.766 3.877 8.643 8.643 8.643 4.766 0 8.643-3.877 8.643-8.643C17.286 3.877 13.409 0 8.643 0"/><path d="M20 19.433l-.567.567c-.102.003-.24-.039-.283-.081L15 15.767l.767-.767 4.15 4.152c.046.047.088.173.083.281m1.423-1.222l-4.733-4.74A1.653 1.653 0 0015.523 13c-.442 0-.867.172-1.166.471l-.875.876a1.655 1.655 0 000 2.335l4.733 4.74c.362.362.91.578 1.467.578.28 0 .553-.056.788-.161l.07-.031 1.182-1.145.117-.194c.324-.725.145-1.696-.416-2.258"/></g></svg>