<svg xmlns="http://www.w3.org/2000/svg" xmlns:xlink="http://www.w3.org/1999/xlink" width="18" height="19" viewBox="0 0 18 19" class="svg svg-icon-expand"><defs><path id="a" d="M.673.463h8.263v8.232H.673z"/><path id="c" d="M0 .35h8.355v8.26H0z"/></defs><g fill="none" fill-rule="evenodd"><g transform="translate(8.609 .32)"><mask id="b" fill="#fff"><use xlink:href="#a"/></mask><path fill="#FFF" d="M8.593.78a1.18 1.18 0 00-.886-.317c-.19.008-.381.014-.572.014H5.322c-.948 0-1.898 0-2.849.003-.365.001-.673.119-.89.339a1.07 1.07 0 00-.298.784c.01.644.486 1.08 1.186 1.082.548.003 1.095.002 1.643.002l1.031-.001-.842.837c-1.07 1.064-2.14 2.128-3.214 3.189-.2.197-.46.514-.41.989.05.448.305.777.72.924.112.04.243.07.388.07.25 0 .539-.09.824-.374 1.2-1.196 2.401-2.389 3.603-3.58l.504-.5v.697c0 .67-.001 1.339.004 2.008.006.66.47 1.136 1.103 1.136h.005c.631-.002 1.09-.486 1.093-1.152.006-1.768.01-3.536.013-5.304A1.155 1.155 0 008.593.78" mask="url(#b)"/></g><g transform="translate(0 9.712)"><mask id="d" fill="#fff"><use xlink:href="#c"/></mask><path fill="#FFF" d="M7.311.355c-.46-.039-.766.218-.96.41l-4.1 4.07v-.67c0-.69.001-1.381-.003-2.072A1.14 1.14 0 001.9 1.25a1.121 1.121 0 00-.858-.284C.423 1.01.021 1.487.02 2.18L0 7.454a1.133 1.133 0 001.145 1.154h.084l.294-.003L6.564 8.6c.562 0 .997-.31 1.135-.81a1.07 1.07 0 00-.172-.935 1.177 1.177 0 00-.944-.455 133.16 133.16 0 00-2.096-.005h-.654L7.94 2.323c.064-.061.127-.124.179-.193a1.07 1.07 0 00.133-1.127 1.076 1.076 0 00-.941-.648" mask="url(#d)"/></g></g></svg>