<svg width="20" height="20" viewBox="0 0 20 20" fill="none" xmlns="http://www.w3.org/2000/svg" class="svg svg-like-icon"><g clip-path="url(#clip0_2160_43998)"><path d="M10 0a10 10 0 100 20 10 10 0 000-20z" fill="#CCC"/><path d="M15.203 9.172c.22.154.422.307.422.843 0 .537-.286.755-.592.906.125.204.165.45.11.683-.096.43-.49.764-.84.862.152.243.2.482.02.775-.232.369-.433.509-1.323.509H9.375c-1.235 0-1.875-.682-1.875-1.25V9.581c0-1.537 1.834-2.843 1.834-3.912L9.2 4.338c-.006-.082.01-.28.073-.338.1-.099.376-.25.794-.25.272 0 .453.051.667.154.726.346.915 1.222.915 1.927 0 .339-.518 1.354-.588 1.705 0 0 1.084-.24 2.35-.248 1.325-.008 2.185.237 2.185 1.052 0 .326-.273.654-.394.832zM4.5 8.75h1a.75.75 0 01.75.75v4.75a.75.75 0 01-.75.75h-1a.75.75 0 01-.75-.75V9.5a.75.75 0 01.75-.75z" fill="#fff"/></g><defs><clipPath id="clip0_2160_43998"><rect width="20" height="20" fill="#fff"/></clipPath></defs></svg>