<svg width="18" height="14" viewBox="0 0 18 14" fill="none" xmlns="http://www.w3.org/2000/svg" class="svg svg-newspost-icon"><g clip-path="url(#clip0_4110_202885)"><path d="M0 13.707h14.473c2.024 0 3.665-1.659 3.665-3.705V3.704c0-2.046-1.64-3.704-3.665-3.704H3.665C1.641 0 0 1.659 0 3.704v10.003z" fill="#9E9E9E"/><g fill="#fff"><path d="M5.228 6.157c0 .021-.006.04-.019.056a.138.138 0 01-.063.039.534.534 0 01-.122.024 1.917 1.917 0 01-.192.007c-.078 0-.143-.002-.195-.007a.55.55 0 01-.122-.024.141.141 0 01-.063-.04.087.087 0 01-.02-.055V4.544c0-.138-.01-.246-.03-.324a.64.64 0 00-.087-.201.39.39 0 00-.147-.13.459.459 0 00-.21-.046.53.53 0 00-.308.111 1.66 1.66 0 00-.324.323v1.88c0 .021-.006.04-.019.056a.138.138 0 01-.065.039.56.56 0 01-.122.024c-.05.005-.115.007-.193.007a1.92 1.92 0 01-.194-.007.577.577 0 01-.122-.024.141.141 0 01-.065-.039.087.087 0 01-.019-.055V3.33c0-.022.006-.04.016-.056s.03-.029.057-.04a.448.448 0 01.107-.023c.043-.006.097-.008.163-.008.067 0 .123.002.168.008a.395.395 0 01.103.023c.024.01.042.024.052.04.01.016.016.034.016.055v.327c.157-.17.316-.296.477-.38a1.08 1.08 0 01.506-.128c.192 0 .355.032.487.096.132.063.238.149.32.258.081.109.14.236.176.382.036.146.054.322.054.527v1.746z"/><path d="M8.617 4.662c0 .097-.022.17-.065.216a.233.233 0 01-.18.07h-1.72c0 .12.014.23.042.328a.625.625 0 00.136.25c.063.068.143.12.241.156.098.037.216.055.354.055.14 0 .262-.01.368-.03a2.502 2.502 0 00.466-.134c.05-.02.092-.03.124-.03.019 0 .035.004.047.011.013.008.023.02.032.04.008.018.014.046.017.08a1.841 1.841 0 01-.008.334.198.198 0 01-.052.105.38.38 0 01-.113.06c-.06.026-.14.05-.234.075a3.265 3.265 0 01-.327.064 2.703 2.703 0 01-.393.027c-.251 0-.472-.032-.66-.096a1.178 1.178 0 01-.475-.289 1.199 1.199 0 01-.284-.488 2.292 2.292 0 01-.093-.691c0-.252.033-.478.098-.68.066-.202.16-.373.285-.514.125-.14.277-.248.455-.322.179-.074.38-.11.604-.11.237 0 .439.034.607.104a1.094 1.094 0 01.652.729c.05.17.076.353.076.552v.128zm-.774-.228c.007-.224-.038-.4-.135-.528-.096-.128-.244-.192-.445-.192a.545.545 0 00-.452.21.7.7 0 00-.114.23 1.144 1.144 0 00-.046.28h1.192z"/><path d="M13.557 3.324a.495.495 0 01-.01.085 2.158 2.158 0 01-.034.146l-.755 2.558a.262.262 0 01-.041.088.168.168 0 01-.078.052.556.556 0 01-.148.025 4.211 4.211 0 01-.506 0 .664.664 0 01-.154-.028.165.165 0 01-.08-.052.228.228 0 01-.039-.084l-.475-1.719-.007-.028-.006.028-.438 1.719a.24.24 0 01-.036.087.157.157 0 01-.08.052.63.63 0 01-.156.026 4.002 4.002 0 01-.51-.002.664.664 0 01-.151-.026.164.164 0 01-.081-.053.229.229 0 01-.038-.084l-.748-2.558a1.071 1.071 0 01-.037-.144.588.588 0 01-.008-.088.09.09 0 01.018-.055c.011-.016.033-.028.063-.038a.608.608 0 01.124-.021 2.622 2.622 0 01.4 0 .513.513 0 01.124.022c.03.01.05.025.062.043a.22.22 0 01.027.065l.561 2.076.006.038.007-.038.526-2.076a.177.177 0 01.03-.065.135.135 0 01.062-.043.433.433 0 01.116-.022 2.296 2.296 0 01.382.001.567.567 0 01.116.023c.028.01.048.022.06.038a.19.19 0 01.027.055l.564 2.093.01.034.006-.038.539-2.076a.161.161 0 01.025-.065.125.125 0 01.064-.043c.03-.01.07-.018.12-.022.05-.005.115-.007.193-.007.079 0 .142.002.192.007.05.004.089.01.117.02.029.01.048.023.06.039.01.015.015.033.015.055z"/><path d="M16.01 5.358c0 .16-.03.302-.09.425a.848.848 0 01-.255.308 1.16 1.16 0 01-.39.185c-.15.041-.313.062-.489.062a1.853 1.853 0 01-.75-.158.476.476 0 01-.112-.072.222.222 0 01-.053-.104.877.877 0 01-.02-.21c0-.062.003-.112.007-.148a.363.363 0 01.02-.09c.008-.021.018-.036.03-.043a.095.095 0 01.049-.011c.023 0 .057.013.103.04.045.025.102.055.17.086.067.032.146.062.236.09a1.049 1.049 0 00.497.018.484.484 0 00.146-.064.269.269 0 00.093-.105.32.32 0 00.032-.145.24.24 0 00-.059-.163.523.523 0 00-.155-.12 1.772 1.772 0 00-.219-.094 5.641 5.641 0 01-.25-.099 2.302 2.302 0 01-.25-.123.943.943 0 01-.22-.171.79.79 0 01-.155-.245.903.903 0 01-.059-.342c0-.136.027-.26.08-.373a.806.806 0 01.228-.29c.1-.08.22-.142.363-.187.143-.045.303-.067.48-.067a1.857 1.857 0 01.485.066c.068.02.125.04.172.063.046.022.08.041.1.057.02.016.034.032.043.047a.217.217 0 01.019.057.94.94 0 01.015.205c0 .057-.001.104-.004.14a.353.353 0 01-.016.085c-.008.021-.017.036-.03.043a.084.084 0 01-.044.011.215.215 0 01-.09-.033 1.754 1.754 0 00-.36-.142 1.015 1.015 0 00-.457-.012.353.353 0 00-.13.063.265.265 0 00-.1.216c0 .066.02.12.06.165.04.044.093.084.158.118.066.034.14.065.223.095.084.03.169.061.254.096.085.035.17.076.254.122a.962.962 0 01.223.171.788.788 0 01.159.243.869.869 0 01.058.334z"/><path d="M5.383 8.46c0 .231-.036.435-.108.612a1.18 1.18 0 01-.314.449 1.384 1.384 0 01-.506.278c-.2.063-.434.095-.705.095h-.342v1.309c0 .021-.007.04-.02.057a.144.144 0 01-.069.041.66.66 0 01-.127.026c-.053.006-.12.009-.203.009a1.84 1.84 0 01-.2-.01.7.7 0 01-.13-.025.132.132 0 01-.066-.041.094.094 0 01-.019-.057v-3.69c0-.1.026-.174.078-.223a.282.282 0 01.204-.075h.967c.097 0 .19.004.278.011.087.008.193.023.315.048.123.024.247.069.373.135a1.033 1.033 0 01.524.6c.047.134.07.285.07.452zm-.872.06a.733.733 0 00-.076-.354.522.522 0 00-.187-.206.618.618 0 00-.233-.084 1.794 1.794 0 00-.253-.017h-.355V9.25h.375a.902.902 0 00.334-.053.573.573 0 00.35-.383.924.924 0 00.045-.293z"/><path d="M9.724 9.217c0 .34-.043.644-.127.913-.084.268-.21.496-.377.683-.167.188-.374.33-.62.429a2.298 2.298 0 01-.855.147c-.319 0-.597-.042-.835-.125a1.445 1.445 0 01-.594-.382 1.64 1.64 0 01-.357-.653 3.283 3.283 0 01-.12-.939c0-.332.043-.63.128-.896.084-.265.21-.49.377-.676a1.65 1.65 0 01.62-.429c.246-.099.532-.148.857-.148.31 0 .585.04.823.123.238.082.436.21.596.38.16.172.28.388.361.65.082.26.123.568.123.923zm-.875.044c0-.215-.017-.411-.05-.588a1.265 1.265 0 00-.174-.453.827.827 0 00-.325-.292 1.117 1.117 0 00-.507-.103c-.205 0-.376.039-.514.116a.948.948 0 00-.332.309c-.085.129-.145.279-.18.451a3.257 3.257 0 00-.001 1.151c.034.179.09.332.171.459a.79.79 0 00.323.29c.136.067.306.1.51.1.206 0 .377-.038.514-.115a.923.923 0 00.333-.31c.085-.131.145-.284.18-.458.034-.175.052-.36.052-.557z"/><path d="M12.863 10.085c0 .215-.04.405-.12.567-.081.163-.19.299-.327.408-.138.109-.298.19-.482.246-.184.055-.38.082-.59.082a2.261 2.261 0 01-.716-.119 1.434 1.434 0 01-.233-.103.69.69 0 01-.135-.095.24.24 0 01-.06-.119 1.098 1.098 0 01-.016-.223c0-.066.002-.12.006-.165a.492.492 0 01.02-.108.12.12 0 01.038-.058.092.092 0 01.056-.018c.03 0 .071.018.125.052a1.86 1.86 0 00.51.231c.117.036.254.053.408.053a.935.935 0 00.272-.036.606.606 0 00.205-.103.437.437 0 00.128-.165.529.529 0 00.044-.219.381.381 0 00-.076-.24.751.751 0 00-.198-.177 2.09 2.09 0 00-.277-.145l-.32-.144a2.98 2.98 0 01-.32-.173 1.306 1.306 0 01-.278-.232 1.082 1.082 0 01-.198-.318 1.15 1.15 0 01-.076-.441c0-.197.036-.37.11-.519.072-.149.17-.272.294-.37.124-.099.27-.173.437-.22a1.911 1.911 0 01.826-.051c.098.014.188.035.273.06.085.025.16.054.225.085a.514.514 0 01.13.08.233.233 0 01.043.053.254.254 0 01.02.06.598.598 0 01.01.091 2.41 2.41 0 01-.001.294.577.577 0 01-.016.104.125.125 0 01-.032.06.079.079 0 01-.055.02.266.266 0 01-.111-.045 2.483 2.483 0 00-.188-.097 1.76 1.76 0 00-.256-.095 1.136 1.136 0 00-.32-.043c-.092 0-.171.011-.239.034a.482.482 0 00-.169.092.358.358 0 00-.101.14.465.465 0 00-.034.175c0 .091.025.17.075.236.05.067.116.126.2.178.083.052.178.1.284.146.105.045.213.093.323.144.11.05.217.108.323.173.106.064.2.141.282.231.082.09.149.196.2.317.051.121.077.264.077.429z"/><path d="M16.17 7.557c0 .061-.002.114-.008.157a.436.436 0 01-.024.105.14.14 0 01-.04.058.082.082 0 01-.051.02h-1.028v3.306c0 .021-.007.04-.02.057a.144.144 0 01-.069.041.667.667 0 01-.128.026 1.84 1.84 0 01-.201.009c-.08 0-.148-.003-.202-.01a.701.701 0 01-.128-.025.145.145 0 01-.068-.041.089.089 0 01-.02-.057V7.897h-1.028a.08.08 0 01-.054-.02.152.152 0 01-.038-.058.436.436 0 01-.024-.105 1.3 1.3 0 01-.008-.157c0-.063.003-.117.008-.161a.44.44 0 01.024-.106.134.134 0 01.038-.057.085.085 0 01.054-.018h2.892c.019 0 .036.006.052.018.016.011.029.03.04.057a.44.44 0 01.023.106c.006.044.008.098.008.161z"/></g></g><defs><clipPath id="clip0_4110_202885"><rect width="18" height="13.707" fill="#fff"/></clipPath></defs></svg>