<svg width="21" height="20" viewBox="0 0 21 20" fill="none" xmlns="http://www.w3.org/2000/svg" class="svg svg-select-input-icon"><mask id="a" style="mask-type:luminance" maskUnits="userSpaceOnUse" x="0" y="0" width="21" height="20"><path fill-rule="evenodd" clip-rule="evenodd" d="M10.5 0C4.98 0 .5 4.48.5 10s4.48 10 10 10 10-4.48 10-10-4.48-10-10-10zm0 18c-4.42 0-8-3.58-8-8s3.58-8 8-8 8 3.58 8 8-3.58 8-8 8zm5-8a5 5 0 11-10 0 5 5 0 0110 0z" fill="#fff"/></mask><g mask="url(#a)"><rect x="-1.5" y="-2" width="24" height="24" fill="#A80034"/></g></svg>