<svg width="20" height="20" viewBox="0 0 20 20" fill="none" xmlns="http://www.w3.org/2000/svg" class="svg svg-share-icon"><g clip-path="url(#clip0_4018_22185)"><path fill-rule="evenodd" clip-rule="evenodd" d="M16 6a2 2 0 100-4 2 2 0 000 4zm0 2a4 4 0 10-3.927-3.235L6.997 7.351a4 4 0 10-.012 5.311l5.085 2.591a4 4 0 10.854-1.81l-5.022-2.558a4.014 4.014 0 00.004-1.752l5.03-2.562A3.991 3.991 0 0016 8zM4 12a2 2 0 100-4 2 2 0 000 4zm14 4a2 2 0 11-4 0 2 2 0 014 0z" fill="#9E9E9E"/></g><defs><clipPath id="clip0_4018_22185"><rect width="20" height="20" fill="#fff"/></clipPath></defs></svg>