<svg width="20" height="20" viewBox="0 0 20 20" fill="none" xmlns="http://www.w3.org/2000/svg" class="svg svg-twitter.-icon"><path d="M18.51 4.713a6.986 6.986 0 01-2.001.548 3.496 3.496 0 001.532-1.928 6.954 6.954 0 01-2.213.845A3.485 3.485 0 009.89 7.357a9.895 9.895 0 01-7.183-3.641 3.484 3.484 0 001.079 4.653 3.474 3.474 0 01-1.579-.436v.043a3.487 3.487 0 002.796 3.418 3.502 3.502 0 01-1.575.06 3.488 3.488 0 003.256 2.42 6.995 6.995 0 01-5.16 1.443 9.86 9.86 0 005.342 1.566c6.411 0 9.917-5.31 9.917-9.916 0-.15-.004-.302-.01-.45a7.08 7.08 0 001.738-1.804z" fill="#9E9E9E"/></svg>