<svg width="31" height="30" viewBox="0 0 31 30" fill="none" xmlns="http://www.w3.org/2000/svg" class="svg svg-vip-disabled"><circle cx="15.75" cy="15" r="15" fill="#F4F5F7"/><path d="M10.597 13l-.61-3.66 1.876.47a2 2 0 002.085-.741l1.802-2.402 1.802 2.402a2 2 0 002.085.74l1.876-.469-.61 3.66H10.597z" stroke="#CCC" stroke-width="2" stroke-linejoin="round"/><path d="M9.75 17l1.5 6 1.5-6" stroke="#CCC" stroke-width="2" stroke-linecap="round" stroke-linejoin="round"/><rect x="14.75" y="16" width="2" height="8" rx="1" fill="#CCC"/><path fill-rule="evenodd" clip-rule="evenodd" d="M18.75 16a1 1 0 00-1 1v6a1 1 0 102 0v-2h.5a2.5 2.5 0 000-5h-1.5zm1 2v1h.5a.5.5 0 000-1h-.5z" fill="#CCC"/></svg>