<svg width="20" height="16" viewBox="0 0 20 16" fill="none" xmlns="http://www.w3.org/2000/svg" class="svg svg-wechat-icon"><path d="M15.481 9.426a.759.759 0 00.749-.748.745.745 0 00-.749-.748.745.745 0 00-.748.748c0 .416.332.748.748.748zm-3.688 0a.759.759 0 00.748-.748.745.745 0 00-.748-.748.745.745 0 00-.748.748c0 .416.332.748.748.748zm5.473 4.2a.29.29 0 00-.143.308c0 .04 0 .081.02.122.082.349.246.902.246.922 0 .061.02.102.02.143a.183.183 0 01-.184.185c-.041 0-.061-.02-.102-.041l-1.208-.697a.667.667 0 00-.286-.082c-.062 0-.123 0-.164.02a6.483 6.483 0 01-1.801.247c-3.05 0-5.505-2.048-5.505-4.588s2.455-4.587 5.505-4.587 5.505 2.048 5.505 4.587c0 1.372-.736 2.622-1.903 3.461zm-3.37-8.878a7.577 7.577 0 00-.232-.004c-3.479 0-6.339 2.384-6.339 5.421 0 .462.066.908.19 1.333h-.074a8.302 8.302 0 01-2.154-.307c-.061-.02-.123-.02-.184-.02a.694.694 0 00-.35.102l-1.456.838a.291.291 0 01-.123.041.227.227 0 01-.225-.225c0-.061.02-.102.04-.163.021-.02.206-.695.308-1.104 0-.041.021-.102.021-.143a.463.463 0 00-.185-.368C1.718 9.147.836 7.655.836 5.999.836 2.953 3.81.5 7.462.5c3.136 0 5.773 1.807 6.434 4.248zm-4.294.349a.862.862 0 00.855-.856.849.849 0 00-.855-.855.849.849 0 00-.855.856c0 .477.377.855.855.855zm-4.383 0a.862.862 0 00.855-.856.849.849 0 00-.855-.855.849.849 0 00-.855.856c0 .477.378.855.855.855z" fill="#9E9E9E"/></svg>