<svg width="20" height="20" viewBox="0 0 20 20" fill="none" xmlns="http://www.w3.org/2000/svg" class="svg svg-whatapp-icon"><path d="M10.001 1.668A8.333 8.333 0 115.81 17.205l-4.139 1.13 1.127-4.14a8.333 8.333 0 017.203-12.526zM6.994 6.092a.801.801 0 00-.31.083c-.072.037-.139.09-.244.19-.1.093-.157.175-.218.255a2.275 2.275 0 00-.47 1.399c.001.409.107.806.275 1.177.34.752.9 1.548 1.642 2.285.178.177.352.357.54.522a7.873 7.873 0 003.2 1.705s.467.072.474.072c.155.009.309-.003.464-.01.242-.013.48-.079.694-.193a4.24 4.24 0 00.319-.183s.035-.024.104-.075c.112-.084.182-.143.275-.24a.963.963 0 00.175-.252c.065-.136.13-.395.156-.61.02-.165.014-.255.012-.311-.004-.09-.078-.182-.159-.221l-.484-.218s-.725-.315-1.168-.518a.415.415 0 00-.148-.034.402.402 0 00-.314.106c-.005-.002-.06.046-.663.777a.292.292 0 01-.306.108 1.189 1.189 0 01-.16-.055l-.21-.09a5.02 5.02 0 01-1.312-.836c-.105-.093-.202-.192-.303-.289-.35-.34-.636-.7-.85-1.057l-.049-.078a.769.769 0 01-.085-.171c-.031-.123.051-.221.051-.221s.203-.222.297-.342c.09-.117.17-.23.219-.311.098-.158.13-.32.078-.447a70.785 70.785 0 00-.724-1.7c-.049-.111-.195-.192-.328-.208-.045-.005-.09-.01-.135-.013a2.821 2.821 0 00-.335.004z" fill="#9E9E9E"/></svg>