<svg width="22" height="26" viewBox="0 0 22 26" fill="none" xmlns="http://www.w3.org/2000/svg" class="svg svg-yellow-flame-icon"><path fill-rule="evenodd" clip-rule="evenodd" d="M8.825 1.19c2.56 1.21 4.872 3.565 6.183 7.892.263-.376.516-.794.72-1.151a19.238 19.238 0 00.36-.665l.018-.037.005-.008v-.002l.659-1.317 1.225.817c3.544 2.364 4.527 7.265 3.36 11.35C20.152 22.283 16.591 26 10.685 26c-2.607 0-4.696-.571-6.325-1.574C2.728 23.42 1.637 22.029.96 20.52c-1.333-2.96-1.098-6.395-.37-8.582.571-1.716 1.216-4.726-.036-10.356L.202 0H2.055c1.61-.004 4.238-.009 6.77 1.189z" fill="#FFD419"/></svg>