<svg width="193" height="70" viewBox="0 0 193 70" fill="none" xmlns="http://www.w3.org/2000/svg" class="svg svg-100yearslogo"><path d="M43.045 55.883c7.747-.115 12.831-4.38 17.512-10.093 2.726-3.326 5.141-6.894 7.724-10.335.046-.104.075-.161.075-.161s-8.946 9.263-13.57 11.897c-3.1 1.77-5.62 2.807-9.268 2.426-3.24-.334-6.248-1.821-8.052-4.605-2.225-3.447-2.254-7.81-1.119-11.638 2.692-9.09 11.54-20.07 22.1-14.935 2.957 1.441 5.05 4.456 6.761 7.194.312.502 1.096 1.574 1.73 2.623-.364-.853-.727-1.707-1.084-2.56-1.441-3.424-2.271-6.646-4.79-9.464-2.23-2.496-5.124-4.358-8.283-5.24-18.837-2.726-31.495 27.945-21.754 40.193 2.877 3.28 7.586 4.773 12.018 4.704v-.006z" fill="#E90044"/><path d="M91.533 14.917c-2.692 3.955-5.257 7.99-7.868 11.99a293.003 293.003 0 01-3.948 5.92c-.525.76-1.044 1.723-1.666 2.57 1.13-1.032 2.207-2.184 2.784-2.772 1.435-1.47 2.83-2.98 4.22-4.49 3.164-3.442 6.553-6.618 10.052-9.713 2.098-1.862 5.856-5.13 9.695-6.929 3.551-1.66 7.251-1.919 7.88-1.907 2.738.063 5.314.622 7.729 2.063 2.202 1.314 4.479 3.493 5.361 6.18 1.441 4.386 1.314 7.095.219 11.291.075-.277.156-.53.248-.778a35.11 35.11 0 001.274-7.597c.15-2.652.386-5.2-.179-7.73-.352-1.568-.772-3.395-2.381-6.38-1.112-2.058-4.611-4.525-4.611-4.525-10.813-3.701-22.9 4.15-28.797 12.807h-.012z" fill="#6AD9D4"/><path d="M69.44 33.939c-.099.121-.191.242-.289.369-.294.38-.582.76-.87 1.147-2.583 3.441-4.998 7.01-7.724 10.335-4.68 5.718-9.77 9.983-17.512 10.093-4.432.063-9.147-1.424-12.018-4.704a10.688 10.688 0 01-2.098-3.62c1.804 5.724 6.185 10.243 12.03 11.875 4.53 1.262 9.459.397 13.632-1.632 7.626-3.712 13.407-9.943 18.537-16.67a49.465 49.465 0 01-2.755-5.141c-.311-.68-.623-1.36-.928-2.046l-.006-.006z" fill="#003866"/><path d="M118.279 1.418a13.304 13.304 0 00-1.62-.536 14.636 14.636 0 00-2.087-.386 22.186 22.186 0 00-1.55-.127 21.614 21.614 0 00-.859-.017c-1.435 0-2.825.161-4.237.45-.052.01-.104.016-.15.028-.098.023-.196.04-.294.063-.553.127-1.106.266-1.671.433a34.38 34.38 0 00-3.874 1.389c-7.383 3.147-13.545 8.755-18.745 15.01a406.84 406.84 0 00-3.694 4.167 392.05 392.05 0 00-5.88 6.86c.277.455.56.916.836 1.377a305.675 305.675 0 003.395 5.528c.07-.087.138-.173.202-.265.628-.848 1.147-1.81 1.666-2.571a311.121 311.121 0 003.948-5.92c2.617-4 5.176-8.04 7.868-11.99 5.897-8.657 17.984-16.508 28.798-12.807-.323-.11-1.735-.565-2.047-.698l-.005.012z" fill="#003866"/><path d="M96.9 53.549c3.124-.346 5.804-1.482 7.003-1.972 5.545-2.253 10.589-5.775 14.595-10.047.069-.23.115-.369.132-.38-1.729 1.81-4.83 4.565-7.989 6.07-2.115 1.008-4.386 2.029-6.531 2.478-3.406.715-6.53.461-8.438.017-4.911-1.135-9.165-3.867-12.704-7.182-1.487-1.395-3.251-3.925-5.125-6.876a305.675 305.675 0 01-3.395-5.528c-.276-.461-.559-.922-.836-1.378-1.124-1.85-2.236-3.66-3.308-5.297-2.104-3.21-4.658-6.173-7.666-8.485-3.246-2.49-6.318-4.07-10.128-4.07.092.024.179.053.265.076 3.159.882 6.053 2.744 8.283 5.24 2.52 2.812 3.355 6.04 4.79 9.464.358.853.72 1.706 1.084 2.56l.916 2.12c0 .012.012.024.018.04a275.553 275.553 0 001.567 3.54c.306.68.617 1.366.928 2.046a49.961 49.961 0 002.756 5.142c1.844 3.02 3.983 5.85 6.3 8.485.104.098 1.539 1.487 3.337 2.294 4.738 2.127 10.162 2.086 14.145 1.643z" fill="#FFD54C"/><path d="M135.231 19.915c-1.095-3.81-2.969-7.367-5.603-10.583-3.868-4.727-7.977-6.663-9.038-7.107-.167-.07-.259-.104-.259-.104s3.498 2.473 4.611 4.525c1.614 2.986 2.029 4.807 2.38 6.38.571 2.531.335 5.079.179 7.73a35.11 35.11 0 01-1.274 7.598c-.789 2.755-1.942 5.43-3.527 7.862a38.747 38.747 0 01-4.202 5.32c-4.006 4.271-9.05 7.787-14.595 10.047-1.205.49-3.885 1.62-7.004 1.971-3.977.444-9.407.49-14.145-1.643-1.798-.806-3.233-2.196-3.337-2.294l-.012-.011s.144.23.26.438c1.239 1.885 4.974 5.655 9.182 8.416 3.39 2.224 7.384 3.689 8.37 3.861 9.343 1.66 18.912-2.357 25.978-8.3 3.828-3.216 7.119-7.124 9.482-11.54 1.194-2.224 2.15-4.588 2.784-7.032 1.32-5.066 1.199-10.502-.247-15.534h.017z" fill="#E90044"/><path d="M6.714 44.182c-.392 1.095-.784 2.19-1.176 3.28 0 0-.011.501.225.72l-.507 1.614s-.023.196.357.352c.375.161 5.355 2.07 5.355 2.07s.363.022.525-.266c.161-.288.68-1.51.68-1.51s.288.046.565-.139c.19-.126.328-.916.403-1.118.357-1.014.71-2.023 1.066-3.038.462-1.314 4.076-10.565 6.543-18.122 3.844-11.77 6.692-22.203 7.101-23.627.45-1.55.179-3.02-1.014-3.366-.64-.185-1.418-.058-2.006.12-1.39.422-2.058 2.278-2.571 3.477a510.874 510.874 0 00-2.876 6.888c-1.21 2.94-5.332 13.09-6.433 15.857-.692 1.74-5.01 13.367-6.243 16.796l.006.012z" fill="#ED1652"/><path d="M6.714 44.182c-.392 1.095-.784 2.19-1.176 3.28 0 0-.011.501.225.72l-.507 1.614s-.023.196.357.352c.375.161 5.355 2.07 5.355 2.07s.363.022.525-.266c.161-.288.68-1.51.68-1.51s.288.046.565-.139c.19-.126.328-.916.403-1.118.357-1.014.71-2.023 1.066-3.038.462-1.314 4.076-10.565 6.543-18.122 3.844-11.77 6.692-22.203 7.101-23.627.45-1.55.179-3.02-1.014-3.366-.64-.185-1.418-.058-2.006.12-1.39.422-2.058 2.278-2.571 3.477a510.874 510.874 0 00-2.876 6.888c-1.21 2.94-5.332 13.09-6.433 15.857-.692 1.74-5.01 13.367-6.243 16.796l.006.012z" fill="#ED1652"/><path d="M27.851 4.41c.45-1.551.179-3.02-1.014-3.367-.64-.184-1.418-.057-2.006.121-1.39.421-2.058 2.277-2.571 3.476a510.823 510.823 0 00-2.876 6.888c-1.21 2.94-5.332 13.09-6.433 15.857-.577 1.453-3.672 9.765-5.401 14.48 6.052-6.52 11.078-13.69 15.552-21.276 2.61-8.455 4.42-15.073 4.743-16.185l.006.006z" fill="#E90044"/><path d="M7.556 41.87c-.346.94-.64 1.741-.842 2.318-.392 1.095-.784 2.19-1.176 3.28 0 0-.011.5.225.72l-.507 1.614s-.023.196.357.352c.375.16 5.355 2.069 5.355 2.069s.363.023.525-.265c.161-.288.68-1.51.68-1.51s.288.046.565-.139c.19-.127.328-.916.403-1.118l1.066-3.038c.462-1.314 4.076-10.565 6.543-18.122a487.99 487.99 0 002.363-7.442c-4.473 7.586-9.5 14.757-15.552 21.276l-.005.005z" fill="#E90044"/><path d="M8.184 58.702s.329-.012.444-.271c.115-.26.346-.934.346-.934l1.994-5.274s-.156-.415-1.205-1.009c-1.049-.588-1.78-.957-2.876-1.072-1.095-.115-1.268.012-1.268.012-.098.069-.173.455-.213.565-.179.46-.352.928-.53 1.389-.306.8-.612 1.596-.917 2.398-.121.322-.248.645-.369.968-.121.323-.49.807-.265 1.153.184.282 4.87 2.075 4.87 2.075h-.011z" fill="#ED1652"/><path d="M6.997 58.944s.328.179.732.127c.167-.023.443-.3.507-.456.092-.247-.08-.34-.265-.455a15.762 15.762 0 00-1.608-.91c-.819-.404-1.891-.658-2.473-.721 0 0-.479 0-.577.104-.11.12-.086.438-.052.576.058.23.243.38.444.49.312.173 3.292 1.245 3.292 1.245z" fill="#ED1652"/><path d="M1.745 67.665s.116.161.404 0c.288-.162 2.202-1.839 2.202-1.839l-.19-.155s-.081-.116-.035-.19c.046-.076.173-.07.3-.018.127.052.184.11.184.11l.23-.173-.322-.145s-.156-.195-.07-.305c.087-.11.543.254.543.254l.201-.202-.501-.398.219-.11.41.272.068-.231-.092-.127s0-.11.162-.115c.16-.006.126-.271.126-.271l-.213-.179h.3l.063-.346-.219-.057v-.156l.3.017.017-.265-.311-.173.161-.028.208.028.144-.334-.127-.15.179-.011.11-.34-.104-.104.063-.098h.133l.074-.346-.126-.11.213-.051.075-.34-.127-.11.196-.075.063-.288-.103-.087.196-.086.063-.329-.104-.086.185-.11.057-.242-.092-.127.23-.086.03-.311.12-.306-.022-.144-.79-.403-1.06 1.493-1.044 4.202-.974 1.614-1.603 1.62-.011.553.011-.006z" fill="#ED1652"/><path d="M3.878 57.658L1.308 64l-.208.651c-.075.231-.11.467-.121.704l-.104 2.3c-.029.276-.035.57-.19.812-.07.11-.15.208-.202.323-.052.115-.07.26 0 .369.087.15.277.167.427.11.15-.058.213-.214.282-.346.127-.254.213-.525.363-.767a12.033 12.033 0 011.718-2.15c.311-.311.646-.605.997-.876l.628-.456s.387-.392.496-.547c.11-.156.294-1.309.294-1.309l1.038-4.23a.39.39 0 00-.133-.392c-.38-.289-1.285-.865-2.42-.761a.366.366 0 00-.29.219l-.005.005z" fill="#E90044"/><path d="M2.34 64.622a.25.25 0 00-.156-.121c-.15-.035-.312.074-.364.247-.034.127.012.214.04.329.07.277-.017.501-.034.565-.19.634-.576 1.695-.559 1.683.11-.098.53-1.02.582-1.136.121-.294.242-.587.358-.881.051-.139.115-.277.161-.416a.325.325 0 00-.029-.265v-.005z" fill="#fff"/><path d="M164.776 2.38a.581.581 0 01.213.456.684.684 0 01-.703.674h-9.269c-.714 1.718-1.366 3.107-1.954 4.168h5.972s.207.011.363-.11c.087-.069.081-.23.144-.317.081-.11.213-.132.34-.161a2.92 2.92 0 01.652-.08c.582 0 .876.224.876.674v13.84c0 .34-.283.512-.848.512-.109 0-1.1.058-1.1-.668v-.836h-10.186v.991c0 .548-.818.484-.818.484s-1.055.116-1.038-.553l-.011-13.73c0-.311.219-.576.519-.634.213-.04.432-.08.524-.08.548 0 .819.224.819.674h2.997c.19-1.055.369-2.444.536-4.168h-9.055a.383.383 0 01-.254-.092.292.292 0 01-.115-.23c0-.11.04-.19.115-.254a.383.383 0 01.254-.093h18.606c.34 0 .605-.034.79-.109.19-.07.374-.179.565-.323.04-.017.109-.057.213-.12a.655.655 0 01.352-.093.72.72 0 01.495.19l.006-.011zm-5.32 10.272V8.375h-10.185v5.136h9.332c.472 0 .853-.38.853-.853v-.006zm-10.185 7.142h9.349a.837.837 0 00.836-.836v-4.726h-10.185v5.562z" fill="#000"/><path d="M192.202 14.958a.64.64 0 01.196.484.659.659 0 01-.196.467.688.688 0 01-.508.202h-7.608v6.68c0 .34-.271.513-.819.513-.109 0-1.078.116-1.078-.576V16.11H172.12a.35.35 0 01-.254-.11.322.322 0 01-.115-.242c0-.092.034-.173.115-.242a.374.374 0 01.254-.11h3.539V10.14c0-.288.011-.997.028-1.055.133-.45.617-.496 1.021-.496.547 0 .818.214.818.646h4.669v-4.26h-4.865c-1.602 2.346-4.219 5.153-6.692 7.113l-.282-.27c1.85-2.15 3.412-4.133 4.444-5.903.761-1.309 1.343-2.732 1.925-4.127.236-.565.357-1.435 1.118-1.435 0 0 .68.103.963.253.282.15.426.398.426.738 0 .161-.04.34-.115.536a38.017 38.017 0 01-1.331 2.392h11.257c.34 0 .605-.034.79-.11.19-.069.369-.172.536-.293.092-.07.19-.127.282-.173a.685.685 0 01.311-.07c.191 0 .352.07.496.202a.633.633 0 010 .945.706.706 0 01-.496.202h-6.876v4.26h4.242c.34 0 .605-.035.79-.11.19-.069.346-.155.467-.253.121-.098.23-.167.323-.202h.028a.629.629 0 01.312-.08.72.72 0 01.495.19.582.582 0 01.214.455c0 .179-.07.334-.196.473a.688.688 0 01-.508.201h-6.167v5.5h5.689c.34 0 .605-.035.79-.11.19-.07.369-.173.536-.294.092-.07.19-.127.282-.173a.686.686 0 01.311-.07c.208 0 .375.064.508.191v.006zm-14.682.455h4.669V9.914h-4.669v5.5z" fill="#000"/><path d="M151.905 39.23a.34.34 0 01.167-.04c.432 0 .824.115 1.176.352.346.23.501.663.467 1.29a40.102 40.102 0 01-.894 4.866 19.006 19.006 0 01-1.516 4.058c1.47.899 2.865 2.565 2.865 3.55 0 .266-.058.554-.173.854-.156.42-.726.507-.991.144a15.07 15.07 0 00-.582-.744c-.479-.582-1.614-1.816-2.087-2.248-1.262 1.971-3.862 4.162-6.237 5.453l-.311-.323c1.96-1.435 4.294-3.845 5.447-6.121a34.578 34.578 0 00-3.245-2.444 1.221 1.221 0 01-.473-1.424c.553-1.608 1.101-3.568 1.654-5.885l.087-.323h-2.404a.416.416 0 01-.282-.092.292.292 0 01-.115-.23c0-.093.04-.174.115-.243a.4.4 0 01.282-.11h2.577c.104-.46.207-.922.311-1.377.092-.415.179-.836.265-1.25l.225-1.125c.063-.328.127-.663.184-.991.018-.104.024-.22.07-.312.115-.236.386-.242.616-.236.398.017.738.11 1.032.27.294.162.404.433.323.808a76.951 76.951 0 01-1.049 4.22h1.954c.063 0 .127.01.19 0a.397.397 0 00.156-.076c.046-.04.063-.11.092-.161a.232.232 0 01.098-.098l.006-.012zm-.254 1.332l.029-.294h-2.433l-.057.294c-.68 2.548-1.36 4.732-2.041 6.548a.488.488 0 00.277.623c.853.363 1.666.76 2.444 1.187.945-2.421 1.539-5.205 1.781-8.358zm10.664-3.09c.202-.069.432-.08.622-.08.548 0 .819.224.819.674v14.456c-.052.819-1.355.496-1.355.496-.582-.173-.484-.732-.484-.732v-.029h-4.554v1.776c0 .564-.789.513-.789.513s-.963.15-.963-.755V38.233c0-.213-.023-.444.208-.634.23-.19.564-.202.755-.202.53 0 .789.225.789.675v.052h3.741c.173 0 .358.011.525-.052a.5.5 0 00.213-.144c.069-.075.092-.179.161-.254a.75.75 0 01.312-.19v-.012zm-4.952 14.082h3.712c.467 0 .842-.38.842-.842V38.816h-4.554v12.74z" fill="#000"/><path d="M172.022 38.412h9.447c.19 0 .352-.07.496-.202a.615.615 0 00.213-.472.64.64 0 00-.196-.485.702.702 0 00-.507-.19h-.058a.763.763 0 00-.398.162c-.04.017-.109.069-.213.15-.104.08-.254.155-.455.23-.196.07-.467.11-.807.11h-2.162a.64.64 0 00.208-.185c.178-.26.276-.53.276-.795 0-.877-1.02-1.632-3.055-2.26l-.224.133c.807.766 1.423 1.694 1.861 2.778a.614.614 0 00.231.294c0 .011.011.023.011.04h-4.668a.35.35 0 00-.254.11.323.323 0 00-.115.242c0 .092.034.173.115.242.075.07.161.11.254.11v-.012z" fill="#000"/><path d="M174.99 49.19c.092-.195.144-.403.144-.616 0-.305-.127-.513-.38-.628a2.152 2.152 0 00-.894-.173c-.115 0-.207 0-.282.011-.075.012-.121.012-.144.012-.167 1.038-.456 2.167-.865 3.39-.403 1.215-1.441 3.002-1.971 3.844l.253.27c.738-.68 1.978-2.259 2.594-3.227a21.621 21.621 0 001.545-2.876v-.006z" fill="#000"/><path d="M175.814 46.453h-3.648a.35.35 0 00-.254.11.323.323 0 00-.115.241c0 .093.034.173.115.242.075.07.161.11.254.11h3.648v6.479c0 .178-.034.3-.098.363-.063.063-.201.092-.409.092h-1.925v.484c.79 0 1.331.098 1.625.294.294.196.513.456.663.779.092.196.185.334.271.415.087.08.231.12.438.12.773 0 1.159-.674 1.159-2.017V47.15h3.764c.207 0 .374-.069.507-.201a.638.638 0 00.196-.473.637.637 0 00-.196-.484.702.702 0 00-.507-.19c-.167 0-.358.08-.565.242a3.734 3.734 0 01-.582.294c-.179.069-.438.109-.778.109h-1.839c0-.663.104-1.314.311-1.943l.023-.069c0-.524-.692-.668-1.193-.79l-.865-.213v3.02z" fill="#000"/><path d="M181.728 43.6a.65.65 0 00.479-.202.639.639 0 00.196-.467.682.682 0 00-.986-.605c-.092.046-.19.104-.282.173a2.151 2.151 0 01-.536.294c-.191.069-.462.11-.819.11h-1.585a19.397 19.397 0 002.063-3.171.988.988 0 00.087-.352c0-.253-.127-.438-.381-.565a2.448 2.448 0 00-.789-.242c-.156-.023-.323-.063-.45.064s-.138.276-.167.444c-.035.178-.063.357-.098.53a32.337 32.337 0 01-.853 3.291h-2.594a.779.779 0 00.208-.178c.345-.392.524-.807.524-1.251 0-.945-.807-1.874-2.415-2.802l-.254.116s.271.49.3.536c.098.19.185.38.265.576.167.398.311.813.427 1.228.092.328.161.657.225.991.046.271.023.646.305.767.006 0 .017 0 .023.006h-3.032a.349.349 0 00-.253.11.324.324 0 00-.116.241c0 .093.041.173.116.242.075.07.161.11.253.11h10.157l-.018.006z" fill="#000"/><path d="M180.264 52.188c.352-.473.531-.922.531-1.355 0-.985-.842-1.879-2.519-2.685l-.283.16c.398.595.761 1.344 1.09 2.26a8.19 8.19 0 01.392 1.447c.063.375.559.484.789.179v-.006z" fill="#000"/><path d="M191.983 42.164a.708.708 0 00-.496-.201.686.686 0 00-.311.069 1.822 1.822 0 00-.283.173 2.113 2.113 0 01-.536.294c-.19.069-.455.11-.79.11h-5.037V37.61a34.112 34.112 0 003.153-.646 37.197 37.197 0 002.789-.807c.398-.178.594-.375.594-.593 0-.18-.109-.364-.323-.554a3.098 3.098 0 00-.68-.455c-.236-.115-.392-.19-.467-.23-.622.449-1.406.922-2.346 1.423a17.86 17.86 0 01-2.715 1.182c0-.433-.253-.646-.766-.646-.139 0-.283.035-.421.063-.219.047-.501.127-.559.38-.04.18-.012.364-.012.548v6.779c0 2.582-.224 4.83-.68 6.744-.455 1.92-1.435 3.7-3.199 5.73l.092.317c1.378-.969 3.101-2.784 3.816-4.099.715-1.32 1.182-2.663 1.401-4.046.219-1.378.323-2.922.323-4.623V43.3h2.939v12.249c0 .31.231.576.542.622l.45.064s.789 0 .789-.485V43.306h2.237c.19 0 .352-.07.496-.202a.615.615 0 00.213-.473.624.624 0 00-.213-.472v.005z" fill="#000"/></svg>