<svg width="24" height="24" viewBox="0 0 24 24" fill="none" xmlns="http://www.w3.org/2000/svg" class="svg svg-logo-sm"><path d="M11.676 11.278a15.423 15.423 0 003.205-1.28c.223-.12.403-.232.507-.307.744-.536 1.446-1.174 1.977-1.917 1.185-1.665 1.098-4.067.213-5.713-.296-.546-.37-.62-.598-.777A11.425 11.425 0 0011.71 0C5.243 0 0 5.371 0 11.998c0 3.052 1.115 5.837 2.947 7.954-2.776-4.924 5.407-7.755 8.731-8.676" fill="#E81A46"/><path d="M11.71 23.996c6.469 0 11.711-5.37 11.711-11.998 0-4.683-2.622-8.738-6.442-10.713.23.157.303.231.599.777.885 1.643.972 4.048-.214 5.713-.528.743-1.23 1.38-1.977 1.917a5.444 5.444 0 01-.507.308 15.423 15.423 0 01-3.205 1.28c-3.322.92-11.507 3.752-8.732 8.675C5.09 22.435 8.22 24 11.708 24" fill="#A81D38"/><path d="M12.51 8.938c-.04.133-.531.347-.649.436-.194.144-1.049.654-1.296.656-.438 0-.798-.526-1.068-.827-.082-.091-.143-.24-.209-.337a.982.982 0 01-.087-.293c.005-.205.355-.159.43-.147.409.07.714.084 1.012.108.082.008.164.005.246.01.264.012 1.1.089 1.358.2.124.053.288.11.262.192m-1.033 3.512c.007.086.015.175.017.262 0 .067.035.255.037.325.012.185.022.262-.103.39-.124.122-1.087.514-1.42.63l-1.81.618-2.264.77c-.166.057-.357.12-.53.1-.573-.067.02-.808.192-.942.477-.38.984-.725 1.449-1.119.418-.356.927-.618 1.394-.9.644-.384 1.428-.596 2.102-.887.183-.08.27-.118.46-.173.136-.041.31-.092.446-.063-.059.313.005.645.033.994m2.13 4.536c.063-.308.136-.616.225-.921.051-.18.105-.363.2-.522.21-.354.612-.298.967-.349.31-.046.617-.106.927-.15.53-.074 1.035-.098 1.55.09l.084.031c.054.02.108.039.164.05.308.06.644.025.933-.1.962-.417.861-1.939-.047-2.331-.707-.303-1.39-.255-2.135-.248a9.805 9.805 0 00-1.57.118c-.24.04-.477.135-.721.125-.385-.014-.402-.248-.524-.56-.08-.207-.164-.412-.253-.616-.101-.233-.259-.445-.395-.66.367-.184.75-.32 1.12-.495a8.36 8.36 0 001.259-.748c.742-.529 1.434-1.166 1.981-1.907 1.162-1.573 1.137-4.05.214-5.737-.167-.305-.263-.584-.61-.782-.296-.165-.926-.307-1.318-.3-.27.005-.537.053-.793.142-.263.091-.48.264-.75.322-.73.154-1.471.25-2.22.26-.374.005-1.21-.26-1.468.156-.103.169-.129.505-.136.7-.01.277.052.549.148.806.178.474.45.897.897 1.138.2.108.385.243.613.262.347.029.636.1.983-.015.339-.113.62-.344.954-.461.326-.114.967-.267 1.282-.037.298.22.218.558.148.869-.064.286-.141.567-.21.851-.068.291-.168.551-.323.806-.299.498-.677 1.066-1.203 1.369.1-.058-.239-.953-.281-1.054-.136-.322-.24-.529-.543-.683a4.128 4.128 0 00-1.986-.445c-.291.007-.58.053-.857.14-.24.072-.714.3-.714.3s.033-.067.083-.132c.04-.053.103-.113.155-.185l.046-.068c.526-.757.078-2.047-.488-2.655-.195-.212-.36-.476-.582-.65-.43-.334-.812-.687-1.371-.473-.383.146-.613.49-.8.844-.287.536-.536 1.094-.665 1.693-.2.94-.237 1.934.028 2.865a9.06 9.06 0 001.472 2.937c.061.082.117.168.176.257.298.457 1.244.962.632 1.494-.362.255-.874.527-1.285.784-.31.192-1.432.907-1.692 1.082-.46.31-1.794 1.306-2.17 2.367-.253.85.18 1.783.99 2.105.553.219 1.074.099 1.56-.207a11.76 11.76 0 011.136-.608c.237-.116.47-.243.71-.352 1.154-.514 2.366-.875 3.575-1.253.054-.017.113-.04.174-.067.246-.104.462-.14.521.197.021.12-.026.19-.056.303-.043.159-.052.334-.075.498-.106.731-.214 1.465-.233 2.203-.033 1.227.17 2.44.44 3.627.067.296.175.626.478.741.19.075.387.133.592.133.634 0 1.225-.489 1.094-1.16-.094-.486-.179-.974-.284-1.46-.075-.349-.066-.71-.061-1.063.004-.332-.024-.642.007-.979.068-.758.155-1.5.303-2.234" fill="#fff"/></svg>