<svg width="300" height="93" viewBox="0 0 300 93" fill="none" xmlns="http://www.w3.org/2000/svg" class="svg svg-zb-logo-reverse"><g clip-path="url(#clip0_3077_38483)"><g clip-path="url(#clip1_3077_38483)"><path d="M52.533 41.512c.548-.2 1.132-.42 1.697-.711.438-.22 1.022-.274 1.424-.128.145.055.273.146.401.237.237.165.51.365.894.42 1.369.219 2.938-.949 3.504-2.099.42-.857.42-2.098 0-2.974-1.46-3.084-4.836-4.032-7.518-3.886-.438.018-.84.09-1.168.164-.42.073-.767.146-.913.055-.072-.055-.218-.256-.31-.931-.146-1.168.146-2.7 1.132-3.503.857-.712 2.135-1.113 3.357-1.515.967-.31 1.99-.639 2.828-1.113.913-.53 1.533-1.058 1.916-1.697.548-.876.62-1.916.201-2.719-.912-1.715-3.467-2.335-5.255-2.171-1.533.146-2.993.693-4.416 1.259-1.095.42-2.171.857-3.266 1.277-.073.037-1.24.42-.912 0 .164-.2.62-.31.857-.438a36.752 36.752 0 002.993-1.66c1.788-1.095 3.503-2.336 5.054-3.723 1.405-1.24 3.084-1.989 3.996-3.759.767-1.496.292-3.43-.401-4.744-.475-.912-1.332-1.277-2.208-1.57-.256-.09-.53-.2-.803-.31-.493-.2-1.004-.4-1.496-.492-1.332-.237-3.923.602-4.47 2.062-.165.438-.165.93-.165 1.423 0 .31 0 .602-.036.84a4.46 4.46 0 01-.749 1.806c-.492.675-1.076 1.24-1.697 1.843-.565.547-1.15 1.131-1.66 1.788l-.073.073c-.055-.11-.128-.31-.237-.711-.037-.183-.073-.274-.164-.384l-.165-.182c-.82-.93-2.372-.967-3.357-1.752-1.095-.857-1.496-2.062-2.354-3.138-.657-.821-1.551-1.515-2.591-1.734-2.263-.492-4.106 2.044-3.795 4.07.31 1.97 1.259 4.36 2.883 5.62 2.098 1.66 4.817 2.19 7.207.857.949-.53 2.281-1.076 2.3.639 0 1.368-1.807 2.92-2.793 3.722-1.35 1.095-2.937 1.898-4.634 2.281.054 0 .09-.018.146-.037-1.296.384-3.504.986-3.504 2.537-.11.31-.219.93.091 1.295 1.077 1.241 2.41 2.172 3.705 2.573 1.35.402 2.135.055 3.029-.346.219-.092.456-.201.711-.31.712-.274 2.683-1.168 3.376-.585.785.639.055 3.175-.255 3.887-1.004 2.226-3.285 3.485-5.402 4.38-2.208.93-4.434 1.86-6.642 2.791-1.623.675-3.94 1.369-4.762 3.084-.383.803-.383 1.715.018 2.719.748 1.897 3.12 1.131 4.526.675.273-.091.51-.164.73-.22.693-.182 1.404-.528 2.116-.857 2.208-1.058 3.65-1.569 4.89-.036.858 1.04.475 2.5 0 3.777-1.131 2.974-3.54 6.642-5.967 7.937-.2.11-.401.201-.602.31-.876.438-1.77.895-2.463 1.643-.675.73-.967 1.861-.766 2.992.2 1.059.802 1.934 1.678 2.354a2.17 2.17 0 001.022.256c1.15 0 2.208-.84 3.03-1.497l.255-.2c2.92-2.281 5.346-4.945 7.225-7.883.931-1.478 1.88-3.047 2.336-4.69.602-2.207 1.533-4.251 2.664-5.747.128-.165.256-.347.383-.511.639-.894 1.314-1.825 2.3-2.226.364-.146.711-.274 1.058-.402" fill="#fff"/><path d="M66.219 57.715c-.347-.565-.676-1.204-1.04-1.88-.785-1.514-1.606-3.065-2.756-4.141-1.715-1.606-4.927-4.599-7.536-4.124-1.04.182-1.88.894-2.463 2.098-.675 1.35.894 2.737 1.624 3.814.675.985 1.587 1.752 2.317 2.682.602.767 1.734 2.208 1.387 3.23-.11.31-.329.584-.402.912-.42 1.953 1.99 2.902 3.413 3.303 2.025.584 5.583.073 6.204-2.336.273-1.04 0-2.317-.748-3.54" fill="#fff"/><path d="M23.028 33.976c-.091.712-.475 1.259-1.423 1.314-1.35.073-2.665-.785-3.905-1.205-.675-.237-1.332-.346-1.953-.474-.602-.11-1.113-.237-1.441-.712-.84-1.24.31-2.791.51-4.05.238-1.46 2.044-.73 2.884-.366 1.642.73 3.923.968 4.726 2.683.328.712.711 1.897.602 2.81zM21.933 45.18c-1.022 1.532-3.12 2.244-4.872 2.335-2.482.128-3.157-2.536-3.576-4.525a10.187 10.187 0 01-.165-1.077c-.054-.383-.11-.748-.182-1.113-.11-.438.018-.857.347-1.113.547-.42 1.259-.091 1.46.037.675.383 1.331.784 2.098 1.277.474.292 1.076.42 1.715.566.62.127 1.277.273 1.916.565.84.402 1.35.93 1.533 1.551.146.493.036 1.004-.274 1.478m6.46-21.97c-.548-1.495-2.008-5.473-3.796-5.729-1.697-.255-2.956 1.971-2.956 3.413 0 2.59-4.799.802-6.204.529l-.2-.037c-.858-.164-1.497-.657-1.752-1.332-.238-.639-.092-1.35.401-1.989 1.15-1.478 2.664-2.481 4.014-3.375 1.643-1.077 3.34-1.77 5.091-2.592.913-.42 1.843-.857 2.956-1.003 2.318-.292 4.398-3.558 2.318-5.493l-.183-.164c-1.076-.985-1.478-1.77-2.901-2.335-1.57-.62-3.777-1.205-5.328-.384-1.624.84-4.307 2.318-5.858 3.303-2.317 1.478-4.908 3.102-6.75 5.182-.348.383-.694.785-.895 1.26-.566 1.313.894 2.9 1.806 3.74 1.478 1.387.365 2.445-.711 3.595-.894.948-1.97 1.934-2.318 3.211-.365 1.369-.93 2.829-1.021 4.215-.165 2.573-.31 5.602-.165 8.613a33.02 33.02 0 01-.036 4.069l-.055.693c-.091 1.04-.164 2.135 0 3.102.164 1.004.383 2.026.967 2.683.073.073.22.273.438.565.329.438.657.876 1.004 1.296.31.365.82.748.894 1.24.182 1.096-1.168 1.844-1.788 2.5-1.314 1.406-3.54 1.716-4.781 3.139-1.204 1.387-.475 4.854 1.405 5.401 1.733.493 4.233-1.46 5.583-2.299 2.117-1.332 4.252-2.664 6.369-4.033 1.496-.967 3.63-2.81 5.51-2.773 2.7.036 1.332 2.828.967 4.434-.328 1.46-.401 3.01-.401 4.525 0 2.464.31 7.5 4.014 6.733 2.573-.547 2.373-3.302 2.172-5.346-.402-4.142.602-8.284.584-12.426v-5.164c0-1.551.018-3.102.036-4.653v-.511c.018-1.88.42-3.723.584-5.602.164-1.807.328-3.631.493-5.438.128-1.532 1.058-3.211.492-4.744" fill="#fff"/><path d="M124.81 46.42c0-.218 0-.419-.018-.638-.092-1.679-.657-3.394-1.861-4.562-1.205-1.167-3.139-1.678-4.635-.912-1.405.712-2.409 1.423-3.978 1.952-1.569.53-3.157.95-4.744 1.424-1.57.456-3.376 1.368-2.591 3.32.583 1.479 2.536 2.902 4.105 3.084.493.055.985 0 1.496-.146.055 0 .092-.036.146-.072 1.223-.584 1.77.036 1.971.456.438.857-.091 1.77-.474 2.426a1.9 1.9 0 00-.201.384 241.651 241.651 0 01-1.35 3.193c-.311.73-.73 1.405-1.515 1.679-.529.182-1.076.273-1.606.492-1.441.566-3.229.53-4.233-.784-.584-.767-.967-1.588-1.314-2.372l-.328-.712c-1.186-2.427-2.099-5.2-1.898-7.92.219-3.083 1.971-4.999 4.288-6.787.821-.639 1.405-1.515 2.172-2.263 1.879-1.806 4.288-3.211 6.97-3.211.237 0 .456.036.62.073.183.036.274.054.365.036 1.04-.237 1.478-1.186 1.661-1.934.073-.292.109-.602.146-.949.036-.292.073-.602.128-.894.091-.438.091-.712.073-.858-.128-1.441-3.358-2.28-4.416-2.773-.11-.055-.219-.11-.329-.146-.803-.292-1.569 0-2.445.365l-.347.128c-.62.237-1.222.492-1.824.766-.675.292-1.351.602-2.062.857l-.931.347c-1.624.602-3.248 1.204-4.817 1.934-.602.274-1.606.584-2.025 1.132-.402.529-.53 1.332-.402 1.97.347 1.898 2.682 2.354 4.27 2.591.365.055 1.861-.164 2.098.092.365.383-.346 1.076-.657 1.35-.912.84-2.226 1.168-3.266 1.715-1.86.986-4.525 2.3-5.711 4.088-1.551 2.317-.894 5.474-.2 7.937 1.021 3.558 1.842 6.752 4.25 9.726l.347.42c.548.693 1.187 1.386 1.916 1.915.621.457 1.46.566 2.227.42 1.313-.255 2.791-.53 4.196-.657 1.661-.146 3.084.42 4.708.511 1.807.11 3.723-.164 5.274-1.113 2.134-1.295 1.423-2.61 2.08-4.671.711-2.245 2.262-4.07 3.394-6.095 1.003-1.788 1.313-4.215 1.259-6.331" fill="#fff"/><path d="M146.341 31.002c-3.029-1.642-7.919-2.627-9.78-3.485-4.689-2.171-9.05-4.963-13.156-8.102-1.77-1.368-3.576-3.175-5.511-4.215-.73-.383-1.532-.62-2.372-.876-1.277-.383-2.281-.51-3.613-.11-.584.183-1.496 1.005-1.97.311-.603-.876.93-1.66 1.496-2.08l.438-.31c.31-.22.529-.566.62-1.022.11-.566-.128-1.131-.42-1.807l-.054-.146c-.529-1.277-1.715-2.043-2.865-2.737-.566-.328-.785-.875-1.259-1.295-.219-.183-.438-.42-.712-.475-.31-.054-.73.037-1.04.11a5.21 5.21 0 00-1.843.803l-.273.182c-.566.383-1.114.748-1.424 1.241-.31.493-.657.949-.985 1.423-.511.712-1.004 1.387-1.405 2.135-.675 1.241-1.35 2.482-2.007 3.74-3.03 5.676-6.131 11.405-9.945 16.624-.347.456-.712.912-1.076 1.35a200.804 200.804 0 01-4.362 5.237c-.693.803-1.386 1.606-2.134 2.372-.256.274-.53.62-.84.821-.273.183-.529.274-.84.055-.565-.383-.73-.237-1.313.073-.602.31-1.186.675-1.679 1.168-3.248 3.357 1.314 6.605 4.599 6.569 2.262-.018 4.233-2.92 5.71-4.434a101.36 101.36 0 006.187-6.952 94.558 94.558 0 002.864-3.686c1.68-2.263 3.358-4.526 4.982-6.843l.493-.711c.547-.785 1.003-1.643 1.459-2.555.329-.639 3.467-5.273 4.909-6.642l.109-.11a1.14 1.14 0 011.424-.219c.583.329.437.876.529 1.424.109.584.328 1.204.73 1.66 1.076 1.278 2.718 2.245 3.904 3.34 5.329 4.926 11.606 8.63 18.43 11.094 2.482.894 4.981 1.751 7.463 2.682 1.788.675 3.266 1.843 5.255 1.733.621-.036.967-.2 1.515-.693 1.076-.967 2.463-2.39 2.244-3.96-.146-1.076-1.131-1.952-2.5-2.7" fill="#fff"/><path d="M247.886 52.643c-.292.62-.73 1.04-1.313 1.204a2.774 2.774 0 01-.694.092c-1.277 0-2.646-.84-3.029-1.095-.985-.657-1.77-1.387-2.281-2.153a3.853 3.853 0 00-.273-.365c-.402-.53-.895-1.168-.676-1.77.201-.602.876-1.369 1.405-2.007l.055-.055c.164-.182.292-.347.42-.493.821-1.022 1.934-1.605 3.138-2.208.676-.346 1.369-.693 2.008-1.131a.584.584 0 01.62-.018c.201.11.328.31.328.492-.018.968.165 2.117.365 3.321.347 2.227.712 4.508-.054 6.204m50.854 9.16c.438-.346.84-.784 1.058-1.313.639-1.624-.291-3.559-1.496-5.091a11.757 11.757 0 00-1.715-1.807c-1.387-1.186-2.92-1.897-4.452-2.846-1.934-1.223-1.332-2.81-.092-4.361.146-.183.292-.383.438-.566 2.592-3.412 3.486-8.248 2.318-12.627-.274-1.022-1.369-4.27-4.069-4.27h-.274c-1.733.146-3.357 1.277-4.653 2.19-.42.292-.931.62-1.442.93-1.806 1.114-4.288 2.646-4.58 4.289-.109.602.092 1.222.584 1.843.931 1.167 1.442.857 2.464.2.784-.492 1.879-1.168 3.138-.42 1.551.931 1.77 2.61.639 5-.347.73-.712 1.478-1.223 2.117-1.04 1.277-1.989.949-3.175.566l-.164-.055a18.79 18.79 0 01-3.339-1.478c-1.423-.803-3.376-1.88-4.179-3.43-1.131-2.172-.912-4.672-.693-7.099.055-.693.128-1.332.146-1.97v-.785c-.037-.821-.091-1.752.274-2.336.255-.42.511-.638.839-.693.438-.055.766.2 1.058.438.183.146.383.31.602.438 1.132.566 2.464.584 3.723.51 3.138-.182 6.204-3.813 7.81-6.185 2.353-3.485 4.342-9.799 1.751-13.649-1.003-1.478-2.39-2.61-3.777-3.74-1.569-1.278-3.321-2.628-5.346-2.701-2.099-.073-3.96 1.222-5.657 2.463-1.241.913-2.518 1.861-3.321 3.175-.985 1.643-.711 6.277 2.263 5.31l.255-.073c.84-.274 1.405-.456 2.117-.985 1.223-.93 2.263-1.551 3.321-1.99.73-.31 1.478-.528 2.208-.674.109-.019.255-.073.383-.146.383-.183 1.022-.493 1.697.127.511.475.547 1.168.493 1.77a7.437 7.437 0 01-.967 3.12c-.584.968-.986 1.953-1.405 3.012-.183.456-.384.93-.584 1.404-.384.858-1.004 2.281-2.227 2.592-.638.164-1.277-.073-1.861-.694a70.55 70.55 0 01-1.003-1.076c-.621-.694-1.205-1.332-1.861-1.916-1.46-1.26-2.683-1.88-3.905-.821-.511.438-.967.894-1.424 1.35h-.018c-.584.602-1.204 1.204-1.898 1.752-.419.346-.857.693-1.277 1.04l-.091.073c-.858.693-1.752 1.423-2.664 2.098a29.67 29.67 0 01-.894.694l-.092.073c-.62.474-1.24.966-1.824 1.46l-.201.182c-.693.584-1.624 1.405-2.701.894-1.332-.639-1.076-2.354-.894-3.504.019-.127.037-.237.055-.346.055-.42.073-.876.091-1.26.073-1.605.165-3.412 2.044-4.324.474-.219.949-.383 1.423-.547.292-.092.548-.183.803-.292.986-.384 1.697-1.405 1.734-2.464.036-.894-.438-1.642-1.296-2.043-.566-.274-.949-.274-1.66 0-.73.273-1.314.237-1.77-.11-.584-.456-.584-1.24-.584-1.624 0-.328.054-.766.109-1.222.128-1.186.365-3.376-.419-3.777-.913-.566-1.953-1.132-2.902-1.26-2.189-.292-2.865 1.624-3.248 3.723-.091.529-.127 1.204-.146 1.934-.036 1.423-.091 2.883-.657 3.887-.748 1.277-2.518 1.788-3.813 2.171l-5.036 1.496c-.84.256-1.697.493-2.409.967-.73.475-1.204 1.113-1.296 1.77-.2 1.296 1.041 2.427 2.3 2.756 1.076.273 2.207 0 3.302-.238 1.15-.273 2.299-.529 3.485-.292 2.081.439 1.77 3.814 1.57 6.04-.037.493-.073.858-.073 1.113-.019 1.77-.183 3.613-1.898 4.781a145.92 145.92 0 01-3.759 2.445l-.456.292-1.533.985c-2.08 1.35-4.233 2.738-5.875 4.58-1.405 1.57-1.606 3.905-.475 5.95.383.71.858 1.203 1.369 1.459l.164.055.146.073c.164.127.274.2.383.255 1.478.967 2.609 2.19 3.723 3.394.328.365.729.785 1.131 1.186.657.657 1.277 1.369 1.843 1.989l.036.037c.767.857 1.57 1.733 2.409 2.554 1.624 1.57 4.087 3.941 6.459 4.27 1.789.255 3.248-1.369 3.96-2.828 1.04-2.154.931-4.872.821-7.482-.036-.803-.073-1.532-.073-2.262V40.035c0-.384 0-.785-.018-1.168-.037-2.318-.073-4.526 1.076-6.697.676-1.277 1.752-2.153 2.811-3.01.62-.512 1.259-1.004 1.769-1.588a17.733 17.733 0 011.789-1.715c.255-.201.894-.694 1.569-.694.164 0 .328.037.474.091.438.201.657.675.639 1.405-.018 1.424-.146 2.81-.274 4.143v.036c-.091 1.058-.2 2.153-.255 3.248a186.248 186.248 0 00-.128 3.503c-.036 1.478-.091 3.011-.164 4.526-.073 1.46-.055 3.01-.037 4.525.037 2.5.055 5.054-.328 7.445-.091.62-.219 1.204-.328 1.77v.09c-.493 2.464-.913 4.58.127 7.263.383.967.803 1.642 1.351 2.135.985.876 1.915 1.132 2.773.766 1.442-.602 2.372-2.791 2.445-4.561 0-1.442.091-2.901.164-4.306.037-.73.092-1.442.11-2.172 0-.31.036-.62.055-.93.036-.64.091-1.296.054-1.935-.054-1.222 0-2.445.073-3.63.037-.931.092-1.88.092-2.811 0-.255.018-.53.237-.675.164-.11.401-.11.602 0 .164.091.274.237.401.383.84 1.058 2.008 1.916 3.157 2.755.237.183.475.347.712.53.638.51 1.35 1.076 1.715 1.86.712 1.497-.456 2.774-1.478 3.906-.365.383-.712.766-.949 1.131-.967 1.405-2.044 3.01-.912 4.452 1.076 1.369 2.646 1.35 4.89-.11.602-.382 1.15-.948 1.66-1.495 1.205-1.241 2.555-2.665 4.763-1.752.675.273 1.277.383 1.861.84a13.779 13.779 0 011.752 1.678c.584.675.018.803-.037 1.423-.054.548.475.894.84 1.15.857.565 1.916.912 2.901 1.222 1.423.438 2.974-.328 4.069-1.222" fill="#fff"/><path d="M81.747 90.268h-4.763v-7.353c0-.53-.42-.95-.948-.95-.53 0-.95.42-.95.95v8.448c0 .365.293.657.658.657h5.985a.888.888 0 00.876-.876.876.876 0 00-.876-.876" fill="#fff"/><path d="M88.206 81.966a.904.904 0 00-.912.912v8.32c0 .512.401.913.912.913s.913-.401.913-.912v-8.32a.904.904 0 00-.913-.913z" fill="#fff"/><path d="M96.8 87.823l1.315-2.937 1.313 2.937h-2.646.019zm2.154-5.31a.899.899 0 00-.821-.529c-.347 0-.675.201-.821.53l-3.76 8.393a.87.87 0 00.785 1.223.86.86 0 00.785-.511l.93-2.062h4.179l.931 2.062a.88.88 0 00.784.51.866.866 0 00.785-1.222l-3.759-8.394h-.018z" fill="#fff"/><path d="M128.423 81.947a.876.876 0 00-.876.876v3.193h-5.127v-3.193a.877.877 0 00-1.752 0v8.412c0 .474.383.876.876.876a.865.865 0 00.876-.876v-3.558h5.127v3.558c0 .474.401.876.876.876a.876.876 0 00.876-.876v-8.412a.888.888 0 00-.876-.876z" fill="#fff"/><path d="M141.196 83.59a.79.79 0 00.784-.785c0-.438-.346-.766-.784-.766h-6.076a.837.837 0 00-.84.84v8.302c0 .456.383.84.84.84h6.076a.79.79 0 00.784-.785.778.778 0 00-.784-.785h-5.201v-2.828h3.686c.42 0 .767-.347.767-.785a.76.76 0 00-.767-.766h-3.686V83.59h5.201z" fill="#fff"/><path d="M114.829 81.966a.81.81 0 00-.803.802v6.697l-.11-.146-4.981-6.916a1.106 1.106 0 00-.876-.456c-.602 0-1.095.493-1.095 1.095v8.284a.81.81 0 00.803.803.81.81 0 00.803-.803V84.63l.11.146 4.981 6.915c.201.274.529.456.876.456.602 0 1.095-.492 1.095-1.094v-8.285a.81.81 0 00-.803-.802z" fill="#fff"/><path d="M163.238 83.042a.974.974 0 00-.967-.967h-6.113a.778.778 0 00-.784.785c0 .438.346.784.784.784h4.818l-5.529 6.843a.974.974 0 00.748 1.588h6.259c.419 0 .784-.347.784-.767a.79.79 0 00-.784-.784h-4.872l5.437-6.861a.994.994 0 00.201-.602" fill="#fff"/><path d="M183.347 90.56a3.485 3.485 0 11-.002-6.97 3.485 3.485 0 01.002 6.97zm0-8.613a5.132 5.132 0 00-5.128 5.128 5.132 5.132 0 005.128 5.127c2.828 0 5.127-2.299 5.127-5.127a5.132 5.132 0 00-5.127-5.128z" fill="#fff"/><path d="M169.552 87.86l1.314-2.938 1.313 2.938h-2.646.019zm2.153-5.31a.9.9 0 00-.821-.53c-.347 0-.675.201-.821.53l-3.759 8.393a.87.87 0 00.784 1.223.86.86 0 00.785-.511l.931-2.062h4.178l.931 2.062a.88.88 0 00.784.51.866.866 0 00.785-1.222l-3.759-8.393h-.018z" fill="#fff"/><path d="M220.589 90.56a3.485 3.485 0 110-6.97 3.485 3.485 0 010 6.97zm0-8.613a5.132 5.132 0 00-5.128 5.128 5.132 5.132 0 005.128 5.127c2.828 0 5.127-2.299 5.127-5.127a5.132 5.132 0 00-5.127-5.128z" fill="#fff"/><path d="M206.776 87.86l1.314-2.938 1.313 2.938h-2.646.019zm2.153-5.31a.9.9 0 00-.821-.53c-.347 0-.675.201-.821.53l-3.759 8.393a.87.87 0 00.784 1.223.86.86 0 00.785-.511l.931-2.062h4.178l.931 2.062a.88.88 0 00.784.51.866.866 0 00.785-1.222l-3.759-8.393h-.018z" fill="#fff"/><path d="M197.47 90.56h-3.394v-2.718h3.394c.748 0 1.368.602 1.368 1.368 0 .767-.602 1.369-1.368 1.369m-3.394-6.97h3.175c.766 0 1.368.62 1.368 1.368 0 .748-.62 1.368-1.368 1.368h-3.175v-2.737zm5.291 3.393c.548-.42 1.132-1.076 1.132-2.117 0-1.55-1.697-2.791-3.449-2.791h-3.868c-.511 0-.931.438-.931.949v8.083c0 .53.42.949.949.949h3.85c2.755 0 3.649-1.934 3.649-2.883 0-.84-.529-1.734-1.313-2.19" fill="#fff"/><path d="M225.224 34.158c0 18.868-15.292 34.159-34.159 34.159-18.867 0-34.159-15.291-34.159-34.158C156.906 15.29 172.198 0 191.065 0c18.867 0 34.159 15.291 34.159 34.158z" fill="#E81A46"/><path d="M193.62.11v.018c10.364 1.186 15.729 8.503 14.889 17.006-.365 3.722-3.047 6.915-5.51 9.36-3.376 3.176-9.69 4.453-13.905 5.767-.054 0-.091.036-.146.054-.949.31-1.879.657-2.81 1.022-1.751.657-3.704 1.369-5.419 2.135-2.026.894-3.996 2.318-5.912 3.412-.456.256-.913.584-1.387.822-.31.145-3.668 2.645-3.923 2.992-2.263 2.372-3.649 3.777-3.795 8.284-.11 3.832 3.12 10.073 8.065 12.664a33.928 33.928 0 0017.298 4.707c18.867 0 34.158-15.29 34.158-34.158 0-18.868-13.94-32.79-31.603-34.086z" fill="#A81D38"/><path d="M193.072 26.184c-.109.347-1.441.912-1.752 1.15-.529.383-2.828 1.733-3.503 1.733-1.186 0-2.153-1.387-2.883-2.19-.219-.237-.383-.638-.566-.894-.073-.109-.237-.638-.237-.766 0-.547.967-.42 1.168-.383 1.095.182 1.934.219 2.737.292.219.018.438 0 .675.018.712.037 2.974.237 3.668.53.347.145.784.291.711.51m-2.791 9.27c.018.237.036.456.036.693 0 .183.091.675.11.858.036.474.054.693-.274 1.021-.329.329-2.938 1.35-3.85 1.661a512.371 512.371 0 01-4.89 1.624l-6.113 2.044c-.456.146-.967.31-1.442.255-1.551-.182.055-2.135.511-2.481 1.296-1.004 2.664-1.916 3.923-2.956 1.132-.95 2.5-1.625 3.777-2.373 1.734-1.021 3.869-1.587 5.675-2.335.493-.201.73-.31 1.241-.456.365-.11.839-.238 1.204-.165-.146.822 0 1.697.092 2.628m5.766 11.97c.164-.821.365-1.624.602-2.427.146-.474.292-.967.547-1.387.566-.93 1.661-.784 2.61-.93.839-.128 1.678-.274 2.518-.402 1.423-.2 2.792-.255 4.178.237l.237.073c.146.055.292.11.438.128.84.164 1.734.055 2.519-.273 2.609-1.095 2.335-5.11-.128-6.15-1.916-.803-3.759-.675-5.766-.657-1.424 0-2.847.073-4.252.31-.638.11-1.295.366-1.952.329-1.04-.036-1.077-.657-1.424-1.478-.219-.547-.437-1.095-.693-1.624-.274-.62-.693-1.168-1.077-1.733.986-.493 2.026-.84 3.029-1.296a22.426 22.426 0 003.394-1.97c2.008-1.406 3.887-3.084 5.365-5.037 3.139-4.142 3.066-10.693.584-15.145-.456-.803-1.095-1.752-1.642-2.062-.931-.51-2.5-.821-3.558-.803-.73 0-1.46.146-2.154.365-.711.237-1.295.694-2.025.858-1.971.401-3.978.657-6.003.675-1.004 0-3.266-.693-3.96.42-.292.438-.347 1.332-.365 1.843-.018.73.146 1.441.402 2.135.474 1.24 1.222 2.372 2.426 3.01.548.292 1.041.639 1.661.694.931.073 1.715.273 2.664-.037.912-.31 1.679-.912 2.573-1.222.876-.292 2.609-.712 3.467-.092.803.584.584 1.478.401 2.281-.182.748-.383 1.497-.565 2.245a6.778 6.778 0 01-.876 2.116c-.803 1.314-1.825 2.81-3.248 3.613.273-.146-.639-2.518-.767-2.773-.365-.858-.657-1.405-1.459-1.807-1.697-.84-3.486-1.204-5.365-1.168-.785 0-1.569.146-2.317.365-.639.183-1.935.785-1.935.785s.092-.183.219-.347c.11-.146.274-.292.42-.492l.128-.183c1.423-2.007.2-5.401-1.314-7.007-.529-.547-.967-1.259-1.569-1.715-1.168-.876-2.19-1.806-3.704-1.24-1.041.382-1.661 1.295-2.172 2.225-.766 1.405-1.441 2.883-1.788 4.47-.547 2.482-.639 5.11.073 7.555.803 2.737 2.135 5.347 3.978 7.755.164.22.328.438.474.675.803 1.205 3.358 2.537 1.697 3.942-.985.675-2.354 1.386-3.467 2.062-.839.51-3.868 2.39-4.58 2.864-1.241.822-4.853 3.45-5.875 6.24-.694 2.245.492 4.709 2.682 5.548 1.496.584 2.901.256 4.215-.547.985-.602 2.026-1.113 3.066-1.606.638-.31 1.277-.639 1.916-.93 3.12-1.351 6.404-2.3 9.67-3.303.146-.037.311-.11.475-.183.657-.274 1.259-.365 1.405.53.055.328-.073.51-.146.802-.11.42-.146.876-.201 1.314-.292 1.934-.584 3.868-.638 5.82-.092 3.23.456 6.442 1.186 9.562.182.785.474 1.642 1.295 1.953.511.2 1.04.346 1.606.346 1.715 0 3.321-1.295 2.956-3.065-.256-1.278-.493-2.573-.766-3.85-.201-.93-.183-1.88-.165-2.81 0-.876-.054-1.697.019-2.591.182-2.008.419-3.96.821-5.894" fill="#fff"/></g></g><defs><clipPath id="clip0_3077_38483"><rect width="300" height="93" fill="#fff"/></clipPath><clipPath id="clip1_3077_38483"><rect width="300" height="92.202" fill="#fff"/></clipPath></defs></svg>