<svg xmlns="http://www.w3.org/2000/svg" width="28" height="28" viewBox="0 0 120 120" fill="none" class="svg svg-zblogo-icon"><path d="M58.686 63.462c0-.385-.032-.801-.064-1.218-.129-1.603-.449-3.173-.16-4.615-.642-.129-1.475.096-2.116.288-.897.256-1.314.449-2.18.801-3.204 1.346-6.922 2.34-9.967 4.103-2.212 1.314-4.648 2.532-6.635 4.166-2.212 1.827-4.615 3.43-6.859 5.193-.801.64-3.622 4.07-.897 4.359.833.096 1.73-.192 2.532-.449l10.737-3.558c2.852-.961 5.737-1.89 8.59-2.852 1.602-.545 6.154-2.34 6.762-2.917.61-.577.545-.961.481-1.795 0-.32-.192-1.186-.192-1.506" fill="#fff"/><path d="M92.692 74.583a8.022 8.022 0 01-4.423.481 6.966 6.966 0 01-.769-.224l-.385-.129c-2.435-.865-4.84-.769-7.371-.416-1.475.192-2.917.48-4.424.705-1.666.256-3.59 0-4.583 1.635-.448.737-.705 1.602-.961 2.435a51.669 51.669 0 00-1.058 4.263c-.705 3.398-1.122 6.86-1.442 10.353-.16 1.57 0 2.98-.032 4.551 0 1.635-.064 3.301.288 4.936.48 2.244.898 4.519 1.346 6.763.61 3.109-2.18 5.385-5.192 5.385-.962 0-1.923-.289-2.82-.609-1.443-.545-1.956-2.052-2.276-3.43-1.282-5.513-2.244-11.122-2.084-16.795.097-3.43.61-6.827 1.09-10.224.128-.77.16-1.57.353-2.308.16-.513.352-.833.256-1.41-.256-1.57-1.314-1.41-2.468-.93-.288.129-.577.225-.833.32-5.737 1.764-11.507 3.43-16.987 5.802-1.154.481-2.244 1.09-3.366 1.635-1.827.865-3.686 1.763-5.384 2.82-2.308 1.41-4.776 1.988-7.404.962-3.846-1.507-5.93-5.834-4.712-9.744 1.795-4.904 8.11-9.519 10.289-10.961 1.25-.834 6.57-4.135 8.045-5.032 1.955-1.186 4.359-2.468 6.09-3.622 2.916-2.468-1.571-4.808-2.981-6.923-.289-.417-.545-.801-.834-1.186-3.237-4.23-5.577-8.814-6.987-13.622-1.25-4.327-1.09-8.91-.128-13.27.609-2.788 1.795-5.384 3.14-7.852.898-1.634 1.988-3.237 3.815-3.91 2.66-.993 4.455.641 6.506 2.18 1.058.8 1.827 2.019 2.757 3.012 2.66 2.82 4.808 8.814 2.308 12.308l-.225.32c-.224.353-.545.61-.737.866-.224.288-.385.609-.385.609s2.244-1.058 3.398-1.378a15.865 15.865 0 014.07-.641c3.302-.064 6.475.577 9.423 2.051 1.443.705 1.924 1.667 2.565 3.173.192.48 1.826 4.615 1.346 4.872 2.5-1.41 4.294-4.039 5.705-6.346a12.175 12.175 0 001.538-3.718c.32-1.314.673-2.629.994-3.943.32-1.442.705-3.012-.705-4.006-1.507-1.058-4.552-.352-6.09.16-1.57.545-2.917 1.603-4.52 2.148-1.634.545-3.012.192-4.679.064-1.09-.096-1.955-.705-2.916-1.218-2.116-1.122-3.398-3.077-4.263-5.257-.449-1.185-.737-2.468-.705-3.75 0-.897.16-2.468.64-3.237 1.219-1.923 5.193-.705 6.956-.737 3.557-.032 7.083-.48 10.545-1.218 1.282-.256 2.307-1.057 3.557-1.506 1.218-.417 2.5-.641 3.782-.641 1.86 0 4.616.48 6.25 1.378.962.545 2.116 2.212 2.885 3.622 4.391 7.82 4.487 19.295-1.026 26.602-2.596 3.43-5.897 6.378-9.423 8.846-1.89 1.315-3.878 2.5-5.961 3.462-1.763.801-3.558 1.442-5.32 2.308.64.993 1.377 1.987 1.89 3.044.417.93.834 1.892 1.218 2.853.577 1.442.673 2.532 2.5 2.596 1.154.032 2.276-.384 3.43-.577 2.468-.416 4.968-.512 7.468-.544 3.525-.033 6.763-.257 10.128 1.153 4.327 1.795 4.808 8.878.224 10.802M60 0C26.859 0 0 26.859 0 60s26.859 60 60 60 60-26.859 60-60S93.141 0 60 0z" fill="#fff"/><path d="M62.276 45.096c-1.25-.513-5.193-.865-6.443-.93-.384 0-.769 0-1.186-.032-1.41-.128-2.884-.192-4.807-.513-.353-.064-2.02-.288-2.02.674 0 .256.289 1.153.417 1.378.32.448.61 1.122.994 1.57 1.282 1.378 2.98 3.846 5.064 3.846 1.186 0 5.224-2.371 6.154-3.044.577-.417 2.884-1.41 3.077-2.02.128-.384-.641-.64-1.25-.897" fill="#fff"/></svg>