<svg width="251" height="78" viewBox="0 0 251 78" fill="none" xmlns="http://www.w3.org/2000/svg" class="svg svg-zblogo-new"><path d="M69.157 76.363h-4.023v-6.22a.797.797 0 00-.796-.795.798.798 0 00-.795.8v7.148c0 .306.254.554.56.554h5.06c.41 0 .744-.335.744-.744a.745.745 0 00-.744-.743" fill="#000"/><path d="M74.628 69.348a.772.772 0 00-.772.772v7.038a.772.772 0 101.544 0V70.12a.772.772 0 00-.772-.772z" fill="#000"/><path d="M81.897 74.299l1.118-2.49 1.118 2.49h-2.236zm1.815-4.496a.772.772 0 00-1.406 0l-3.188 7.101a.733.733 0 001.337.594l.784-1.74h3.545l.784 1.74a.731.731 0 001.337-.594l-3.187-7.101h-.006z" fill="#000"/><path d="M108.647 69.324a.741.741 0 00-.743.744v2.703h-4.335v-2.703a.741.741 0 10-1.481 0v7.124c0 .41.334.744.738.744a.749.749 0 00.743-.744v-3.014h4.335v3.014a.741.741 0 101.481 0v-7.124a.744.744 0 00-.738-.744z" fill="#000"/><path d="M119.454 70.724a.657.657 0 100-1.314h-5.141a.708.708 0 00-.709.71v7.02c0 .392.317.709.709.709h5.141a.657.657 0 100-1.314h-4.392v-2.398h3.112a.657.657 0 100-1.314h-3.112V70.73h4.392v-.006z" fill="#000"/><path d="M97.154 69.348a.683.683 0 00-.68.686v5.671l-.093-.126-4.22-5.845a.91.91 0 00-.743-.38.925.925 0 00-.922.922v7.003c0 .375.306.686.686.686.38 0 .686-.306.686-.686v-5.672l.092.127 4.22 5.845c.172.242.455.38.743.38a.925.925 0 00.922-.922v-7.003a.686.686 0 00-.68-.686" fill="#000"/><path d="M138.101 70.252a.812.812 0 00-.813-.813h-5.17a.657.657 0 100 1.315h4.075l-4.686 5.787a.818.818 0 00.634 1.337h5.297a.657.657 0 100-1.314h-4.121l4.599-5.81a.808.808 0 00.179-.508" fill="#000"/><path d="M155.112 76.616a2.95 2.95 0 01-2.951-2.951 2.95 2.95 0 012.951-2.952 2.95 2.95 0 012.951 2.952 2.95 2.95 0 01-2.951 2.95zm0-7.286a4.337 4.337 0 00-4.335 4.335 4.337 4.337 0 004.335 4.334 4.337 4.337 0 004.335-4.334 4.337 4.337 0 00-4.335-4.335z" fill="#000"/><path d="M143.434 74.328l1.118-2.49 1.118 2.49h-2.236zm1.815-4.496a.772.772 0 00-1.406 0l-3.188 7.102a.728.728 0 00.669 1.026.734.734 0 00.669-.433l.784-1.74h3.544l.784 1.74a.732.732 0 001.338-.594l-3.188-7.1h-.006z" fill="#000"/><path d="M186.618 76.616a2.95 2.95 0 01-2.951-2.951 2.95 2.95 0 012.951-2.952 2.95 2.95 0 012.951 2.952 2.95 2.95 0 01-2.951 2.95zm0-7.286a4.337 4.337 0 00-4.335 4.335 4.337 4.337 0 004.335 4.334 4.337 4.337 0 004.334-4.334 4.337 4.337 0 00-4.334-4.335z" fill="#000"/><path d="M174.94 74.328l1.118-2.49 1.118 2.49h-2.236zm1.815-4.496a.771.771 0 00-1.406 0l-3.188 7.102a.728.728 0 00.669 1.026.732.732 0 00.668-.433l.784-1.74h3.545l.784 1.74a.732.732 0 001.338-.594l-3.188-7.1h-.006z" fill="#000"/><path d="M167.056 76.61h-2.877v-2.306h2.877a1.152 1.152 0 010 2.306zm-2.877-5.89h2.686a1.159 1.159 0 110 2.316h-2.686v-2.323.006zm4.467 2.875c.462-.351.952-.905.952-1.792 0-1.309-1.441-2.364-2.917-2.364h-.617l-2.651.012a.798.798 0 00-.796.795v6.837c0 .438.358.795.796.795h3.268c2.329 0 3.084-1.637 3.084-2.438 0-.72-.444-1.458-1.119-1.845z" fill="#000"/><path d="M43.887 35.126c.467-.173.946-.352 1.424-.6.374-.19.853-.23 1.193-.103.121.046.225.115.34.201.196.139.42.3.75.352 1.146.179 2.46-.795 2.928-1.781.346-.72.346-1.775 0-2.513-1.222-2.617-4.047-3.412-6.283-3.286-.375.023-.698.087-.98.139-.346.069-.646.126-.761.04-.063-.046-.184-.213-.254-.796-.12-.985.127-2.282.946-2.962.726-.6 1.787-.945 2.813-1.28.812-.265 1.654-.536 2.363-.945.767-.444 1.274-.9 1.608-1.435.455-.738.525-1.62.167-2.294-.766-1.453-2.893-1.978-4.398-1.84-1.28.116-2.496.594-3.695 1.067-.91.357-1.815.726-2.726 1.078-.063.023-1.032.357-.755 0 .138-.173.519-.271.709-.369.853-.432 1.689-.9 2.507-1.406a30.197 30.197 0 004.225-3.142c1.182-1.055 2.583-1.683 3.338-3.182.645-1.268.253-2.905-.329-4.017-.398-.767-1.118-1.09-1.839-1.32-.213-.07-.438-.162-.668-.254-.415-.167-.847-.346-1.245-.415-1.107-.202-3.28.513-3.741 1.74-.139.37-.139.79-.139 1.2 0 .265 0 .513-.034.715a3.755 3.755 0 01-.628 1.527c-.41.565-.905 1.05-1.424 1.562-.473.473-.968.957-1.39 1.51-.022.03-.04.052-.057.07-.046-.093-.115-.271-.19-.612-.035-.16-.058-.242-.133-.322l-.144-.162c-.691-.784-1.977-.818-2.813-1.487-.91-.732-1.245-1.746-1.965-2.651-.554-.698-1.297-1.274-2.156-1.464-1.896-.415-3.435 1.735-3.176 3.447.254 1.665 1.06 3.683 2.404 4.755 1.752 1.4 4.017 1.856 6.029.726.795-.45 1.908-.91 1.92.542.01 1.159-1.505 2.473-2.33 3.153a9.49 9.49 0 01-3.879 1.925c.04-.011.081-.017.121-.029-1.078.318-2.928.825-2.928 2.145-.092.26-.184.778.08 1.095.894 1.055 2.018 1.844 3.09 2.167 1.13.34 1.782.046 2.537-.294.184-.08.38-.173.6-.26.593-.235 2.236-.985 2.824-.495.65.542.051 2.692-.214 3.291-.83 1.88-2.738 2.952-4.513 3.707l-5.545 2.369c-1.355.576-3.286 1.158-3.977 2.605-.323.675-.317 1.447.017 2.3.628 1.608 2.605.957 3.787.565.225-.075.427-.144.605-.19.57-.156 1.176-.444 1.764-.727 1.85-.887 3.05-1.337 4.093-.04.714.888.397 2.11-.012 3.193-.945 2.514-2.963 5.626-4.986 6.71a19.94 19.94 0 01-.501.26c-.732.368-1.488.754-2.064 1.388-.565.617-.807 1.58-.64 2.525.162.9.669 1.631 1.4 2a1.9 1.9 0 00.86.208c.957 0 1.844-.715 2.536-1.268l.207-.168c2.439-1.936 4.473-4.178 6.036-6.669.784-1.245 1.573-2.576 1.948-3.971.495-1.873 1.291-3.597 2.225-4.86.11-.143.213-.293.317-.437.536-.755 1.095-1.54 1.913-1.885.3-.127.588-.236.882-.346" fill="#000"/><path d="M55.336 48.833c-.288-.473-.565-1.015-.865-1.591-.662-1.28-1.343-2.6-2.294-3.51-1.43-1.36-4.11-3.891-6.3-3.488-.876.162-1.568.755-2.063 1.77-.56 1.147.749 2.323 1.354 3.222.56.83 1.32 1.481 1.931 2.271.502.646 1.447 1.873 1.153 2.726-.092.266-.27.502-.329.779-.351 1.66 1.672 2.455 2.848 2.795 1.694.49 4.669.064 5.188-1.977.224-.876 0-1.965-.629-2.997" fill="#000"/><path d="M19.246 28.746c-.075.6-.398 1.066-1.193 1.113-1.136.069-2.23-.658-3.263-1.015-.559-.196-1.106-.3-1.63-.398-.502-.098-.935-.207-1.206-.605-.697-1.055.26-2.363.427-3.435.19-1.234 1.706-.617 2.415-.306 1.378.611 3.286.819 3.949 2.277.276.6.6 1.597.507 2.375m-.922 9.47c-.848 1.291-2.611 1.902-4.081 1.977-2.064.11-2.629-2.138-2.986-3.833-.064-.3-.104-.6-.144-.905-.046-.328-.087-.64-.156-.933-.092-.375.023-.727.294-.94.467-.357 1.05-.07 1.216.023.571.323 1.113.669 1.758 1.084.387.253.9.357 1.441.472.525.11 1.067.225 1.597.484.703.346 1.136.784 1.28 1.315.115.42.034.853-.225 1.25m5.4-18.589c-.46-1.268-1.677-4.628-3.164-4.853-1.423-.213-2.472 1.66-2.472 2.882 0 2.196-4.012.686-5.188.45l-.173-.035c-.72-.144-1.257-.553-1.464-1.124-.202-.542-.08-1.136.334-1.677.957-1.245 2.23-2.104 3.355-2.86 1.366-.916 2.79-1.492 4.26-2.19.755-.357 1.539-.732 2.467-.847 1.93-.242 3.671-3.003 1.936-4.64l-.155-.144c-.905-.842-1.24-1.493-2.427-1.972-1.314-.524-3.147-1.02-4.45-.328-1.354.715-3.602 1.954-4.894 2.784-1.936 1.25-4.098 2.628-5.637 4.38-.288.33-.576.67-.75 1.073-.466 1.112.756 2.45 1.517 3.17 1.233 1.17.305 2.063-.594 3.043-.744.807-1.649 1.637-1.937 2.715-.311 1.165-.784 2.387-.853 3.563-.132 2.167-.253 4.732-.144 7.285a29.47 29.47 0 01-.023 3.447l-.046.588c-.07.888-.144 1.799 0 2.623.144.847.328 1.718.807 2.265.058.064.19.242.363.473.277.369.553.732.842 1.09.259.316.68.628.743 1.048.15.928-.98 1.55-1.499 2.116-1.1 1.199-2.957 1.447-3.988 2.657-1.003 1.176-.404 4.104 1.181 4.565 1.441.421 3.534-1.227 4.658-1.948 1.775-1.136 3.55-2.254 5.314-3.407 1.251-.818 3.032-2.369 4.6-2.351 2.26.028 1.107 2.397.801 3.746-.282 1.24-.334 2.554-.334 3.828 0 2.092.265 6.346 3.349 5.689 2.144-.456 1.988-2.79 1.821-4.52-.34-3.51.502-7.008.485-10.507-.012-1.453 0-2.911 0-4.364l.034-3.93v-.439c.023-1.59.357-3.159.496-4.738.132-1.533.27-3.066.403-4.605.116-1.297.888-2.715.415-4.006" fill="#000"/><path d="M104.284 39.265c0-.184-.012-.363-.023-.536-.081-1.418-.548-2.87-1.557-3.862-1.008-.991-2.622-1.418-3.879-.778-1.181.6-2.011 1.21-3.32 1.648-1.308.438-2.634.813-3.954 1.205-1.32.392-2.819 1.164-2.173 2.801.49 1.245 2.12 2.456 3.435 2.606.415.046.819.006 1.24-.127.04-.012.08-.035.126-.058 1.026-.49 1.476.035 1.655.386.363.727-.07 1.5-.392 2.058-.07.121-.133.23-.173.323-.37.905-.738 1.804-1.124 2.698-.266.616-.606 1.187-1.263 1.423-.444.156-.893.237-1.343.415-1.199.485-2.697.456-3.533-.657-.49-.651-.801-1.343-1.107-2.011a28.293 28.293 0 00-.282-.606c-.986-2.057-1.753-4.392-1.591-6.703.178-2.606 1.643-4.231 3.58-5.741.691-.542 1.17-1.286 1.81-1.908 1.573-1.534 3.579-2.71 5.815-2.71.202 0 .38.035.52.064.149.029.23.046.299.029.87-.208 1.233-1.003 1.389-1.637.058-.248.092-.519.121-.801.029-.254.058-.502.11-.75.069-.374.069-.6.057-.72-.11-1.21-2.807-1.931-3.689-2.346-.086-.04-.179-.087-.27-.121-.675-.242-1.303.011-2.035.305l-.289.116c-.513.195-1.014.42-1.522.645a36.01 36.01 0 01-1.723.726l-.772.289c-1.355.507-2.715 1.014-4.024 1.63-.507.243-1.349.502-1.689.963-.334.444-.432 1.13-.34 1.666.289 1.603 2.248 1.989 3.574 2.19.306.047 1.55-.138 1.752.081.294.323-.294.905-.547 1.147-.755.71-1.856.992-2.727 1.453-1.556.824-3.78 1.948-4.772 3.458-1.291 1.966-.75 4.629-.162 6.721.848 3.015 1.545 5.713 3.557 8.22l.288.363c.467.594.997 1.182 1.608 1.62.525.38 1.222.472 1.856.351 1.09-.213 2.335-.45 3.499-.553 1.383-.121 2.577.352 3.943.438 1.51.098 3.107-.144 4.41-.945 1.78-1.101 1.187-2.22 1.734-3.954.594-1.903 1.891-3.436 2.842-5.154.836-1.515 1.095-3.567 1.055-5.354" fill="#000"/><path d="M122.286 26.227c-2.53-1.395-6.623-2.231-8.162-2.951-3.919-1.834-7.568-4.203-10.986-6.86-1.482-1.153-2.986-2.68-4.612-3.568-.605-.328-1.28-.53-1.988-.75-1.066-.322-1.902-.437-3.015-.086-.495.156-1.25.848-1.648.26-.502-.744.778-1.407 1.256-1.752l.363-.271c.266-.19.438-.485.513-.86.098-.472-.11-.962-.346-1.527l-.051-.127c-.45-1.077-1.43-1.729-2.398-2.311-.473-.282-.657-.738-1.05-1.09-.178-.16-.362-.357-.599-.397-.265-.046-.605.04-.864.098a4.33 4.33 0 00-1.54.674l-.224.156c-.479.328-.928.64-1.193 1.055-.26.409-.542.807-.825 1.204-.432.606-.835 1.176-1.175 1.799-.565 1.055-1.124 2.11-1.684 3.164-2.53 4.796-5.124 9.65-8.306 14.065-.282.392-.593.766-.893 1.147a167.54 167.54 0 01-3.655 4.432 58.844 58.844 0 01-1.775 2.006c-.213.225-.438.525-.697.698-.231.161-.439.236-.698.052-.473-.335-.61-.208-1.1.052-.508.27-.998.57-1.401.991-2.715 2.836 1.089 5.585 3.844 5.557 1.89-.018 3.54-2.473 4.773-3.753a89.464 89.464 0 005.17-5.885 88.974 88.974 0 002.387-3.113c1.406-1.92 2.801-3.821 4.156-5.781l.409-.594c.467-.668.83-1.395 1.222-2.161.27-.536 2.9-4.456 4.098-5.626l.092-.092a.963.963 0 011.194-.19c.49.27.363.737.45 1.204.085.496.281 1.02.604 1.412.9 1.078 2.277 1.891 3.269 2.82 4.455 4.166 9.689 7.296 15.401 9.383 2.075.755 4.168 1.487 6.237 2.277 1.493.57 2.726 1.568 4.398 1.476.513-.03.807-.162 1.268-.583.899-.818 2.064-2.017 1.879-3.349-.121-.905-.945-1.654-2.092-2.282" fill="#000"/><path d="M207.133 44.534c-.236.53-.611.876-1.107 1.02a2.046 2.046 0 01-.576.075c-1.072 0-2.214-.714-2.536-.933-.83-.56-1.47-1.17-1.903-1.816-.063-.098-.144-.196-.224-.311-.335-.439-.744-.986-.559-1.505.178-.507.732-1.164 1.181-1.694l.041-.047c.132-.15.247-.294.345-.415.686-.87 1.626-1.354 2.617-1.861.565-.289 1.142-.588 1.678-.963a.484.484 0 01.513-.023c.167.092.276.254.271.415-.018.824.138 1.793.299 2.819.294 1.879.6 3.815-.04 5.245m42.487 7.758c.369-.3.709-.662.876-1.106.525-1.378-.247-3.015-1.239-4.312a10.98 10.98 0 00-1.429-1.527c-1.159-1.009-2.444-1.597-3.718-2.41-1.614-1.026-1.113-2.369-.081-3.683.127-.161.254-.317.375-.478 2.173-2.888 2.916-6.975 1.942-10.676-.23-.864-1.135-3.62-3.406-3.62-.075 0-.15 0-.231.012-1.447.121-2.801 1.084-3.891 1.856-.346.248-.784.519-1.21.784-1.516.94-3.585 2.23-3.828 3.637-.086.513.075 1.026.496 1.562.778.992 1.205.72 2.064.179.663-.42 1.568-.997 2.622-.357 1.297.79 1.476 2.213.531 4.225-.289.617-.588 1.256-1.026 1.798-.865 1.078-1.66.807-2.658.473l-.144-.046a15.7 15.7 0 01-2.79-1.245c-1.187-.675-2.812-1.597-3.493-2.905-.945-1.834-.76-3.955-.576-6.013.052-.582.098-1.13.121-1.671.006-.184 0-.42-.017-.674-.035-.692-.075-1.476.23-1.978.214-.357.433-.536.704-.582.374-.052.645.173.881.375.15.127.317.265.508.363.951.484 2.057.496 3.118.432 2.617-.155 5.182-3.233 6.519-5.233 1.966-2.946 3.637-8.284 1.459-11.546-.83-1.245-2.001-2.213-3.153-3.164-1.32-1.09-2.767-2.225-4.468-2.289-1.752-.063-3.314 1.032-4.726 2.081-1.038.772-2.11 1.574-2.773 2.692-.83 1.395-.593 5.303 1.897 4.49l.213-.069c.703-.23 1.17-.38 1.77-.842 1.014-.778 1.896-1.314 2.766-1.688a8.98 8.98 0 011.839-.565c.098-.018.208-.07.317-.127.323-.156.859-.415 1.412.104.427.397.45.98.415 1.498a6.142 6.142 0 01-.812 2.64c-.479.807-.819 1.655-1.176 2.548a53.4 53.4 0 01-.484 1.182c-.317.726-.836 1.93-1.856 2.19-.537.138-1.061-.058-1.563-.582-.276-.288-.53-.57-.83-.911-.518-.582-1.003-1.124-1.562-1.614-1.216-1.066-2.236-1.597-3.262-.703-.421.369-.813.76-1.193 1.141l-.018.017c-.49.49-.997.998-1.579 1.464-.357.289-.715.583-1.072.877l-.069.057a68.68 68.68 0 01-2.219 1.776c-.243.196-.496.392-.75.593l-.08.064c-.519.403-1.038.813-1.528 1.233l-.173.15c-.571.502-1.349 1.182-2.248.755-1.112-.53-.893-1.988-.755-2.957.017-.11.029-.207.04-.294.046-.351.064-.743.075-1.06.064-1.355.139-2.894 1.706-3.666a9.228 9.228 0 011.188-.467c.236-.08.455-.156.674-.242.83-.329 1.424-1.188 1.459-2.087.023-.76-.369-1.395-1.078-1.73-.479-.224-.802-.23-1.384-.01-.611.23-1.106.201-1.475-.093-.484-.386-.484-1.049-.484-1.372 0-.276.04-.645.086-1.031.109-1.003.311-2.86-.352-3.188-.761-.473-1.631-.963-2.421-1.066-1.833-.248-2.392 1.366-2.72 3.147-.081.444-.098 1.02-.116 1.631-.034 1.205-.069 2.444-.553 3.286-.622 1.089-2.11 1.521-3.193 1.838l-4.214 1.268c-.697.208-1.412.427-2.011.813-.611.398-1.009.94-1.09 1.499-.161 1.09.865 2.058 1.914 2.329.899.23 1.844.011 2.761-.208.957-.225 1.925-.45 2.916-.242 1.735.369 1.482 3.222 1.309 5.113-.035.415-.063.732-.069.94-.018 1.498-.156 3.049-1.591 4.04-1.038.715-2.11 1.4-3.142 2.075l-.38.248c-.427.277-.859.553-1.28.836-1.735 1.141-3.533 2.317-4.916 3.867-1.182 1.326-1.338 3.297-.398 5.032.328.606.715 1.015 1.147 1.228.046.023.098.035.144.052l.121.058c.138.103.231.167.317.224 1.234.813 2.185 1.857 3.107 2.865.282.306.605.663.94 1.009.541.565 1.072 1.159 1.544 1.683l.029.035c.646.726 1.314 1.47 2.012 2.156 1.354 1.325 3.406 3.337 5.401 3.62 1.498.213 2.72-1.16 3.308-2.393.877-1.833.773-4.115.681-6.323-.029-.674-.058-1.297-.058-1.908v-9.632c0-.328-.012-.663-.017-.985-.029-1.966-.058-3.822.893-5.66.559-1.084 1.464-1.822 2.34-2.543.519-.426 1.044-.859 1.487-1.343.462-.513.963-.997 1.493-1.447.208-.178.755-.587 1.303-.587a.87.87 0 01.392.086c.363.173.542.576.536 1.187-.017 1.2-.127 2.375-.225 3.51v.03a52.32 52.32 0 00-.207 2.738c-.041.956-.069 1.907-.104 2.962-.04 1.251-.075 2.548-.144 3.833-.064 1.234-.052 2.554-.035 3.822.023 2.11.052 4.283-.271 6.294-.086.52-.178 1.02-.271 1.5l-.011.068c-.404 2.087-.755 3.885.115 6.139.317.819.675 1.395 1.13 1.804.818.744 1.597.963 2.323.651 1.199-.512 1.983-2.368 2.046-3.861 0-1.21.069-2.45.133-3.65.034-.61.069-1.227.092-1.838.011-.26.029-.524.046-.784.035-.542.075-1.1.052-1.643-.046-1.031 0-2.069.058-3.078.04-.778.08-1.585.075-2.38 0-.225.023-.45.196-.57.132-.099.328-.099.501 0 .138.08.236.2.329.316.709.905 1.683 1.626 2.628 2.329.202.15.403.3.599.45.525.426 1.124.91 1.441 1.579.6 1.274-.38 2.346-1.239 3.297-.3.334-.588.645-.789.951-.802 1.193-1.712 2.548-.761 3.77.905 1.164 2.202 1.135 4.086-.087.502-.328.957-.8 1.39-1.256 1.003-1.055 2.144-2.254 3.983-1.476.57.242 1.066.329 1.55.715.513.415 1.026.91 1.458 1.412.49.577.018.686-.028 1.21-.041.467.392.756.703.969.715.478 1.602.778 2.415 1.037 1.193.375 2.49-.276 3.407-1.026" fill="#000"/><path d="M188.187 28.901c0 15.961-12.779 28.902-28.544 28.902-15.764 0-28.543-12.94-28.543-28.902C131.1 12.941 143.884 0 159.649 0c15.765 0 28.544 12.94 28.544 28.901" fill="#E90044"/><path d="M161.775.086l.006.017c8.658.997 13.142 7.194 12.439 14.388-.311 3.147-2.548 5.856-4.606 7.92-2.824 2.68-8.092 3.77-11.614 4.87-.041.012-.081.029-.127.04-.79.271-1.574.56-2.352.86-1.458.558-3.101 1.158-4.525 1.798-1.694.76-3.331 1.954-4.945 2.882-.387.225-.761.49-1.165.686-.259.126-3.055 2.248-3.274 2.53-1.89 2.006-3.055 3.2-3.17 7.01-.098 3.239 2.605 8.513 6.738 10.715a28.13 28.13 0 0014.462 3.983c15.765 0 28.544-12.94 28.544-28.901S176.543 1.187 161.775.086z" fill="#A80034"/><path d="M161.327 22.145c-.092.294-1.199.772-1.464.974-.438.323-2.369 1.464-2.928 1.464-.992 0-1.805-1.176-2.41-1.844-.184-.202-.323-.536-.467-.75-.063-.098-.202-.536-.196-.657.012-.455.801-.351.969-.323.922.156 1.608.185 2.288.243.184.017.369.011.559.017.594.029 2.479.202 3.067.45.282.12.651.247.593.432m-2.334 7.839c.017.196.034.392.034.582 0 .15.075.57.087.726.029.41.052.588-.236.87-.283.278-2.456 1.148-3.211 1.407-1.36.461-2.727.922-4.087 1.378l-5.113 1.718c-.374.126-.807.27-1.199.224-1.296-.15.047-1.804.433-2.104 1.072-.847 2.219-1.613 3.268-2.501.94-.796 2.092-1.383 3.153-2.006 1.453-.859 3.228-1.337 4.744-1.983.415-.179.611-.26 1.037-.386.312-.092.698-.202 1.009-.138-.132.697.012 1.44.075 2.219m4.807 10.127c.144-.686.306-1.372.508-2.057.115-.404.236-.808.455-1.17.478-.79 1.383-.663 2.185-.779.697-.103 1.394-.236 2.098-.334 1.199-.167 2.334-.22 3.498.202l.191.069c.121.046.242.086.369.11a3.703 3.703 0 002.104-.225c2.173-.928 1.948-4.33-.104-5.2-1.597-.68-3.142-.57-4.819-.553-1.187.012-2.375.07-3.551.265-.542.092-1.078.3-1.631.283-.87-.035-.905-.554-1.182-1.251a55.28 55.28 0 00-.57-1.372c-.231-.519-.582-.992-.894-1.47.83-.41 1.689-.715 2.531-1.1a18.7 18.7 0 002.841-1.667c1.678-1.181 3.24-2.605 4.479-4.26 2.623-3.51 2.571-9.043.484-12.807-.374-.68-.916-1.487-1.377-1.741-.778-.432-2.087-.686-2.975-.669a5.744 5.744 0 00-1.792.317c-.594.202-1.084.594-1.695.72-1.648.347-3.326.56-5.015.577-.841.012-2.732-.582-3.314.352-.236.375-.294 1.13-.305 1.562-.024.617.115 1.228.334 1.804.403 1.055 1.02 2 2.023 2.542.455.242.87.542 1.383.588.784.063 1.441.225 2.225-.034.767-.254 1.401-.773 2.15-1.027.738-.253 2.185-.599 2.9-.08.674.49.49 1.245.334 1.937-.144.64-.317 1.268-.473 1.902a5.942 5.942 0 01-.732 1.798c-.674 1.113-1.527 2.375-2.715 3.055.225-.127-.541-2.127-.639-2.352-.306-.72-.542-1.181-1.228-1.527-1.412-.71-2.911-1.026-4.49-.992a7.124 7.124 0 00-1.937.312c-.542.161-1.614.668-1.614.668s.075-.15.184-.294c.093-.115.231-.248.346-.415l.104-.15c1.187-1.688.173-4.565-1.101-5.93-.438-.474-.807-1.061-1.314-1.453-.969-.75-1.833-1.534-3.095-1.055-.865.328-1.384 1.095-1.81 1.885-.646 1.193-1.211 2.444-1.499 3.78-.455 2.099-.536 4.318.063 6.399.669 2.317 1.787 4.52 3.326 6.554.139.184.265.38.398.576.674 1.02 2.813 2.15 1.424 3.338-.819.564-1.972 1.175-2.9 1.752-.697.432-3.233 2.023-3.827 2.42-1.038.693-4.052 2.917-4.9 5.287-.576 1.896.41 3.983 2.237 4.697 1.245.49 2.421.22 3.522-.46.818-.508 1.7-.946 2.565-1.361.536-.254 1.06-.542 1.602-.784 2.606-1.147 5.349-1.954 8.082-2.801.126-.04.259-.093.391-.15.554-.23 1.05-.312 1.176.444.046.27-.057.426-.126.674-.098.357-.116.75-.173 1.112-.237 1.632-.479 3.269-.525 4.917-.075 2.738.381 5.442.992 8.099.149.663.397 1.395 1.083 1.654.427.167.871.294 1.337.294 1.436 0 2.767-1.09 2.473-2.588-.213-1.084-.403-2.179-.64-3.257-.172-.778-.149-1.585-.138-2.375.012-.743-.052-1.435.017-2.184.156-1.689.346-3.35.686-4.992" fill="#fff"/></svg>